<svg xmlns="http://www.w3.org/2000/svg" fill="none" viewBox="239 0 662 456">
  <circle cx="673" cy="228" r="228" fill="#EBFF00"></circle>
  <circle cx="673" cy="228" r="211" fill="#5EB2D7"></circle>
  <circle cx="673" cy="228" r="192" fill="#0095D5"></circle>
  <circle cx="673" cy="228" r="159" fill="#002A3C"></circle>
  <path fill="#fff"
    d="M618.91 112.541c-1.223-2.393-4.174-3.358-6.567-2.121a4.88 4.88 0 0 0-2.135 6.567 4.87 4.87 0 0 0 4.351 2.665c.748 0 1.509-.162 2.216-.53 2.407-1.224 3.359-4.175 2.135-6.581m57.881 78.18c-.026 1.723 1.16 3.014 2.822 3.052 1.73.039 2.983-1.169 3.019-2.912.033-1.567-1.231-2.929-2.814-2.943-1.807-.016-3.005 1.352-3.027 2.803m.001 6.91c-.038 1.731 1.148 3.033 2.814 3.073 1.741.041 2.994-1.167 3.027-2.92.029-1.57-1.259-2.936-2.839-2.934-1.809.002-2.972 1.367-3.002 2.781m0-13.836c-.011 1.73 1.2 2.98 2.892 2.988 1.71.008 2.927-1.202 2.949-2.93a2.89 2.89 0 0 0-2.856-2.91c-1.652-.011-2.974 1.252-2.985 2.852m5.825-28.232c-.065-.676-.124-.752-.779-.809-1.229-.107-2.46-.195-3.69-.298-.204-.017-.404-.072-.605-.11h-.252c-1.128 1.55-.286 3.902 1.573 4.394 2.118.56 3.959-.999 3.753-3.177m6.856.441-5.549-1.009c-.415 1.179-.061 2.453.816 3.191.903.762 2.304.888 3.371.304.919-.503 1.486-1.496 1.362-2.486m.114 7.043c-.006-1.638-1.286-2.897-2.938-2.889-1.662.008-2.915 1.257-2.917 2.906-.001 1.708 1.245 2.968 2.929 2.961 1.672-.006 2.931-1.288 2.926-2.978m-5.855 13.886c.002 1.704 1.255 2.961 2.939 2.95 1.672-.011 2.928-1.298 2.916-2.986-.012-1.641-1.291-2.89-2.947-2.879-1.662.012-2.91 1.262-2.908 2.915m0 6.849c-.024 1.724 1.169 2.969 2.875 3 1.683.03 2.947-1.203 2.979-2.908a2.844 2.844 0 0 0-2.818-2.931c-1.727-.029-3.013 1.173-3.036 2.839m5.855 7.017a2.886 2.886 0 0 0-2.941-2.895c-1.662.016-2.913 1.269-2.914 2.918-.001 1.708 1.239 2.955 2.932 2.951 1.677-.004 2.93-1.28 2.923-2.974m0 6.937a2.886 2.886 0 0 0-2.936-2.9c-1.662.013-2.916 1.265-2.919 2.912-.002 1.711 1.233 2.958 2.927 2.956 1.677-.001 2.931-1.272 2.928-2.968m0 13.881c.012-1.628-1.275-2.918-2.914-2.922-1.655-.004-2.93 1.249-2.941 2.891-.011 1.713 1.216 2.971 2.906 2.979 1.68.007 2.937-1.249 2.949-2.948m6.949-6.908c-.016-1.76-1.514-2.9-2.865-2.908-1.825-.011-3.016 1.428-3.01 2.879.008 1.711 1.223 2.961 2.914 2.965 1.68.004 2.976-1.264 2.961-2.936m-2.923-4.002c1.635-.009 2.915-1.269 2.922-2.92.007-1.662-1.378-3.012-2.902-2.917-1.861-.065-2.968 1.451-2.971 2.837-.005 1.737 1.237 3.009 2.951 3m-2.952-9.927c0 1.737 1.242 3.006 2.957 2.995 1.631-.01 2.914-1.278 2.917-2.925.003-1.649-1.362-3.003-2.907-2.914-1.882-.056-2.966 1.476-2.967 2.844m2.927-3.985c1.656.002 2.979-1.305 2.947-2.962-.037-1.89-1.645-3.02-2.94-2.883-1.672.005-2.927 1.239-2.93 2.88-.004 1.705 1.237 2.963 2.923 2.965m2.947-23.748c-.053-1.699-1.474-2.954-2.898-2.876-1.7.001-2.978 1.253-2.972 2.912.006 1.692 1.27 2.959 2.942 2.948 1.648-.011 2.978-1.346 2.928-2.984m.001 6.95c-.036-1.709-1.441-2.943-2.891-2.878-1.714-.007-2.984 1.229-2.98 2.899.003 1.702 1.254 2.962 2.935 2.957 1.653-.006 2.97-1.324 2.936-2.978m.004 6.904a2.906 2.906 0 0 0-2.902-2.871c-1.71-.002-2.979 1.238-2.973 2.906.005 1.697 1.271 2.967 2.942 2.954a2.94 2.94 0 0 0 2.933-2.989m0 41.62a2.91 2.91 0 0 0-2.881-2.892c-1.716-.01-2.992 1.22-2.994 2.886-.002 1.704 1.241 2.969 2.921 2.973a2.933 2.933 0 0 0 2.954-2.967m-5.878 13.964c.028 1.679 1.237 2.893 2.913 2.897 1.684.005 2.979-1.258 2.961-2.929-.02-1.836-1.609-3.057-2.927-2.879-1.511-.14-2.976 1.187-2.947 2.911m.001 6.912c.013 1.711 1.237 2.929 2.94 2.939 1.556.008 2.913-1.135 2.93-2.965.016-1.597-1.287-2.855-2.889-2.855-1.57-.136-2.994 1.205-2.981 2.881m0-13.874c.013 1.707 1.238 2.933 2.944 2.927 1.325.061 2.919-.919 2.921-2.962.003-1.731-1.511-2.902-2.952-2.879-1.468.023-2.926 1.197-2.913 2.914m12.809-62.51c-.05-1.908-1.668-2.879-2.901-2.876-1.562.005-2.941 1.179-2.967 2.933.002 1.67 1.228 2.917 2.885 2.935 1.672.018 3.027-1.316 2.983-2.992m.006 7.023c.027-1.592-1.302-2.923-2.919-2.922-1.676 0-2.945 1.229-2.956 2.864-.012 1.712 1.217 2.984 2.895 2.996 1.664.011 2.951-1.258 2.98-2.938m0 6.891c.011-1.599-1.311-2.904-2.938-2.9-1.671.004-2.934 1.243-2.937 2.882-.004 1.706 1.241 2.978 2.915 2.979 1.659.001 2.948-1.288 2.96-2.961m-5.875 13.893c.003 1.71 1.244 2.961 2.931 2.955 1.669-.006 2.957-1.289 2.94-2.967-.017-1.571-1.293-2.925-2.95-2.887-1.679.039-2.925 1.254-2.921 2.899m0 6.861c-.029 1.716 1.187 3.003 2.86 3.026 1.708.023 3.023-1.252 3.01-2.958-.011-1.601-1.313-2.926-2.877-2.889-1.693-.013-2.966 1.187-2.993 2.821m6.948-20.811c-.031 1.69 1.208 3.016 2.877 3.002 1.838-.014 2.95-1.188 2.989-2.947.034-1.546-1.313-2.897-2.869-2.905-1.636-.008-2.968 1.258-2.997 2.85m0 6.933c-.029 1.692 1.213 3.017 2.88 3.001 1.85-.018 2.948-1.202 2.986-2.951.033-1.545-1.316-2.896-2.872-2.902-1.636-.007-2.967 1.261-2.994 2.852m5.868-13.737c.044-1.521-1.269-2.931-2.828-2.955-1.543-.023-2.954 1.044-3.036 2.802-.078 1.682 1.161 3.03 2.823 3.05 1.65.018 2.956-.975 3.041-2.897m.001 20.704c-.005-1.533-1.395-2.893-2.924-2.861-1.645.034-2.951 1.324-2.946 2.908.007 1.706 1.254 2.963 2.929 2.954 1.736-.009 2.947-1.245 2.941-3.001m0 6.945c.002-1.532-1.379-2.896-2.91-2.874-1.64.023-2.957 1.311-2.96 2.895-.002 1.704 1.242 2.97 2.916 2.967 1.738-.003 2.953-1.232 2.954-2.988m13.876.046c.009-1.558-1.293-2.917-2.859-2.913-1.618.005-2.991 1.169-3.001 2.902-.01 1.678 1.223 2.933 2.861 2.954 1.722.022 2.989-1.22 2.999-2.943m-.001-6.879c.03-1.593-1.277-2.977-2.868-2.966-1.585.01-2.944 1.133-2.992 2.849-.047 1.688 1.209 2.99 2.871 3.008 1.696.018 2.958-1.202 2.989-2.891m.001 13.807c.001-1.565-1.324-2.888-2.894-2.89-1.636-.001-2.973 1.297-2.971 2.887.003 1.714 1.239 2.961 2.932 2.957 1.702-.005 2.931-1.243 2.933-2.954m0 62.456a2.9 2.9 0 0 0-2.867-2.906c-1.652-.011-2.979 1.249-2.998 2.848-.02 1.706 1.218 2.978 2.905 2.984 1.709.007 2.947-1.217 2.96-2.926m0-48.613c.002-1.554-1.318-2.913-2.878-2.895-1.592.019-2.941 1.147-2.983 2.859-.041 1.689 1.217 2.985 2.88 2.999 1.719.015 2.978-1.236 2.981-2.963m-5.865-6.957c-.016 1.694 1.23 2.98 2.895 2.99 1.717.01 2.971-1.246 2.97-2.974-.002-1.552-1.332-2.885-2.888-2.893-1.609-.008-2.962 1.299-2.977 2.877m12.803-27.687c.016-1.579-1.271-2.911-2.84-2.937-1.608-.028-2.984 1.27-3.017 2.845-.036 1.691 1.21 2.997 2.879 3.018 1.671.021 2.961-1.246 2.978-2.926m.001 76.321c.007-1.651-1.244-2.901-2.905-2.904-1.681-.004-2.928 1.204-2.953 2.861-.026 1.7 1.204 2.958 2.906 2.971 1.692.014 2.945-1.229 2.952-2.928m0-48.58c.009-1.644-1.252-2.92-2.898-2.934-1.649-.014-2.931 1.233-2.959 2.88-.03 1.692 1.217 2.978 2.899 2.99 1.683.011 2.949-1.245 2.958-2.936m0-20.799c.006-1.642-1.259-2.917-2.906-2.926-1.649-.009-2.929 1.242-2.952 2.887-.023 1.697 1.223 2.973 2.908 2.982 1.682.008 2.944-1.251 2.95-2.943m0 6.924c.004-1.639-1.274-2.917-2.914-2.918-1.653-.001-2.928 1.253-2.944 2.896-.016 1.698 1.229 2.968 2.917 2.972 1.681.005 2.938-1.255 2.941-2.95m6.532-5.365c.143-.246.231-.47.053-.756a231 231 0 0 1-2.099-3.432c-.154-.256-.36-.313-.634-.295-1.583.102-2.736 1.308-2.749 2.884-.012 1.411.797 2.517 2.094 2.861 1.341.356 2.686-.156 3.335-1.262m.41 5.362c.006-1.614-1.25-2.901-2.844-2.913-1.701-.013-2.986 1.229-2.996 2.895-.01 1.72 1.208 2.967 2.901 2.971 1.664.005 2.933-1.271 2.939-2.953m.001 6.955c.004-1.649-1.254-2.911-2.905-2.915-1.667-.004-2.921 1.226-2.936 2.883-.015 1.724 1.195 2.964 2.898 2.968 1.696.005 2.938-1.234 2.943-2.936m.004 13.81c.005-1.375-1.186-2.936-2.896-2.86-1.669-.06-2.974 1.22-2.975 2.902-.001 1.705 1.266 2.95 2.951 2.941 1.665-.01 2.913-1.301 2.92-2.983m-.012 13.879c-.008-1.634-1.288-2.877-2.947-2.86-1.672.017-2.901 1.253-2.894 2.912.007 1.715 1.226 2.926 2.941 2.921 1.676-.005 2.908-1.267 2.9-2.973m-2.948-3.958c1.69.009 2.939-1.231 2.948-2.926.009-1.647-1.239-2.9-2.899-2.91-1.672-.009-2.918 1.203-2.942 2.866-.025 1.709 1.194 2.961 2.893 2.97m9.197-1.517c.14-.272.215-.579.319-.87v-1.134c-.113-.288-.197-.591-.345-.858-.706-1.27-2.255-1.798-3.651-1.261-1.329.511-2.066 1.94-1.746 3.383.273 1.224 1.201 2.084 2.417 2.24 1.274.164 2.446-.412 3.006-1.5m-5.474 5.819c.094 1.315 1.029 2.35 2.343 2.595 1.321.245 2.652-.413 3.189-1.591.111-.243.175-.507.261-.762v-1.134c-.104-.268-.184-.549-.317-.801-.649-1.231-2.069-1.8-3.441-1.396-1.348.397-2.141 1.6-2.035 3.089m-.019-13.903c.111 1.347 1.03 2.376 2.395 2.626 1.287.236 2.656-.474 3.168-1.65.098-.225.167-.462.249-.693v-1.134c-.114-.287-.199-.589-.347-.857-.677-1.227-2.086-1.778-3.467-1.358-1.126.341-2.131 1.447-1.998 3.066m-6.518 49.03c.265 1.222 1.36 2.161 2.513 2.106l2.761-4.403c-.602-1.162-2.358-1.668-3.646-1.096-1.286.57-1.946 1.924-1.628 3.393m-.08-7.715c-.027 1.69 1.166 2.934 2.841 2.963 1.671.028 2.957-1.183 3-2.825.043-1.662-1.183-2.961-2.823-2.992-1.732-.032-2.991 1.159-3.018 2.854m-.021-20.734c.024 1.708 1.265 2.928 2.966 2.915 1.677-.014 2.904-1.291 2.91-2.981.004-1.337-1.208-2.957-3.036-2.852-1.606.093-2.862 1.309-2.84 2.918m-1.072-34.751c-.008-1.633-1.31-2.902-2.95-2.875-1.668.027-2.919 1.285-2.908 2.924.012 1.714 1.243 2.935 2.952 2.927 1.682-.007 2.915-1.27 2.906-2.976m-5.858 69.389c-.016 1.684 1.241 2.979 2.921 2.973.757-.002 1.455-.179 1.915-.875.173-.261.428-.468.591-.734.171-.278.347-.585.398-.899.288-1.78-1.076-3.344-2.883-3.345-1.667-.001-2.926 1.231-2.942 2.88m0-6.95c-.021 1.7 1.213 2.957 2.912 2.966 1.693.009 2.941-1.236 2.946-2.937.005-1.647-1.251-2.897-2.911-2.897-1.682 0-2.927 1.211-2.947 2.868m-6.945 14.003c.015 1.715 1.257 2.955 2.944 2.941 1.585.051 2.958-1.311 2.925-2.966a2.93 2.93 0 0 0-2.978-2.86c-1.605.023-2.905 1.32-2.891 2.885m-.001-7.077c-.025 1.687 1.217 2.979 2.885 3.003 1.705.024 2.977-1.244 2.98-2.969.002-1.564-1.309-2.879-2.878-2.889-1.629-.01-2.964 1.266-2.987 2.855m0-90.176c.014 1.701 1.274 2.973 2.932 2.96 1.689-.013 2.924-1.258 2.933-2.954.008-1.566-1.295-2.891-2.862-2.91-1.645-.021-3.016 1.305-3.003 2.904m-.005-6.967c-.018 1.707 1.273 3.016 2.959 3 1.678-.016 2.905-1.272 2.91-2.978.005-1.556-1.319-2.885-2.879-2.891-1.603-.006-2.973 1.309-2.99 2.869m-6.932 97.124c0 1.651 1.026 2.982 2.927 3.022 1.679.035 2.917-1.231 2.937-2.945.018-1.559-1.296-2.897-2.859-2.914-1.63-.017-3.005 1.251-3.005 2.837m-.007-6.898c0 1.702 1.23 2.951 2.921 2.964 1.719.013 2.954-1.238 2.951-2.987-.004-1.558-1.33-2.858-2.91-2.853-1.637.004-2.962 1.291-2.962 2.876m0-55.537c-.012 1.696 1.228 2.974 2.901 2.99 1.718.016 2.965-1.232 2.97-2.974.005-1.541-1.344-2.893-2.89-2.896-1.613-.003-2.971 1.309-2.981 2.88m0-6.918c-.016 1.727 1.235 2.99 2.957 2.985 1.694-.005 2.907-1.235 2.915-2.956.006-1.548-1.328-2.886-2.885-2.892-1.624-.007-2.972 1.285-2.987 2.863m-.001-6.937c-.008 1.725 1.256 2.996 2.969 2.985 1.684-.012 2.901-1.259 2.903-2.977.002-1.543-1.348-2.891-2.894-2.892-1.614 0-2.969 1.313-2.978 2.884m0-6.909c.009 1.705 1.248 2.958 2.929 2.962 1.715.004 2.951-1.257 2.943-3.001-.007-1.537-1.381-2.888-2.917-2.869-1.623.021-2.962 1.34-2.955 2.908m0-6.968c.005 1.694 1.254 2.964 2.926 2.974 1.703.011 2.951-1.263 2.946-3.006-.004-1.547-1.352-2.87-2.914-2.863-1.621.008-2.962 1.32-2.958 2.895m0-6.97c-.025 1.707 1.259 3.019 2.95 3.013 1.682-.006 2.909-1.252 2.922-2.967.011-1.553-1.313-2.891-2.874-2.902-1.623-.012-2.974 1.276-2.998 2.856m.392-5.339c.629 1.132 1.923 1.651 3.304 1.324 1.299-.308 2.136-1.387 2.177-2.948-.027-.712-.238-1.47-1.041-1.943a8 8 0 0 1-.775-.537c-.335-.256-.716-.338-1.123-.328a2.958 2.958 0 0 0-2.542 4.432m-7.324 40.078c-.006 1.705 1.258 2.963 2.931 2.95 1.735-.014 2.944-1.253 2.935-3.009-.007-1.507-1.348-2.872-2.866-2.848-1.793.029-2.994 1.317-3 2.907m-.004-6.925c0 1.708 1.237 2.957 2.921 2.953 1.744-.004 2.95-1.226 2.949-2.985-.001-1.538-1.371-2.88-2.916-2.856-1.653.025-2.954 1.297-2.954 2.888m-1.072-20.886a2.895 2.895 0 0 0-2.911-2.855c-1.53-.09-2.946 1.142-2.964 2.847-.018 1.716 1.201 2.978 2.889 2.997 1.691.017 3.007-1.3 2.986-2.989m-5.876 48.608c-.007 1.721 1.205 2.94 2.899 2.977 1.376.031 2.922-.896 2.964-2.924.038-1.771-1.513-3.037-2.907-2.894-1.584-.121-2.949 1.212-2.956 2.841m0-6.907c.005 1.717 1.223 2.948 2.924 2.944 1.69-.003 2.963-1.257 2.947-2.942-.016-1.73-1.493-2.908-2.941-2.897-1.552.013-2.935 1.24-2.93 2.895m5.872-13.911c-.021-1.566-1.289-2.919-2.956-2.881-1.675.039-2.922 1.261-2.915 2.906.007 1.709 1.25 2.957 2.937 2.949 1.667-.008 2.956-1.299 2.934-2.974m-5.873-6.904c.006 1.714 1.228 2.956 2.923 2.955 1.684-.001 2.958-1.256 2.95-2.945-.008-1.62-1.367-2.989-2.938-2.877-1.723-.078-2.941 1.351-2.935 2.867m-6.558 90.216c.008 1.703 1.268 2.959 2.95 2.939 1.672-.019 2.923-1.311 2.904-2.999-.018-1.637-1.309-2.889-2.959-2.87-1.659.018-2.903 1.278-2.895 2.93m-.382-48.567c.028 1.679 1.236 2.898 2.907 2.903 1.688.005 2.979-1.249 2.968-2.923-.012-1.785-1.551-3.052-2.921-2.885-1.583-.132-2.98 1.244-2.954 2.905m0-34.732c.016 1.706 1.244 2.962 2.929 2.962 1.66 0 2.971-1.301 2.946-2.963-.025-1.674-1.408-2.956-2.881-2.88-1.916-.064-3.007 1.493-2.994 2.881m-1.073 20.8c-.017-1.641-1.293-2.873-2.959-2.855-1.678.018-2.902 1.248-2.897 2.912.006 1.714 1.229 2.922 2.949 2.914 1.69-.008 2.924-1.269 2.907-2.971m-2.948-3.961c1.704.004 2.936-1.221 2.947-2.93.011-1.635-1.257-2.894-2.916-2.898-1.68-.002-2.929 1.218-2.939 2.872-.01 1.721 1.2 2.952 2.908 2.956m-2.827 73.494 5.589-1.007c-.367-1.43-1.998-2.294-3.464-1.923-1.339.339-2.28 1.55-2.125 2.93m-.081-7.061c-.004 1.708 1.236 2.966 2.923 2.966 1.669 0 2.932-1.28 2.932-2.972-.001-1.635-1.284-2.904-2.932-2.897-1.661.005-2.919 1.255-2.923 2.903m5.855-41.686c-.007-1.633-1.304-2.904-2.944-2.885-1.67.018-2.912 1.261-2.911 2.914.002 1.712 1.23 2.942 2.936 2.938 1.685-.004 2.927-1.266 2.919-2.967m-5.855-6.913c-.011 1.721 1.201 2.953 2.907 2.957 1.704.005 2.937-1.22 2.948-2.929.011-1.635-1.258-2.897-2.915-2.898-1.684-.001-2.929 1.216-2.94 2.87m0-6.914c-.012 1.724 1.195 2.953 2.905 2.959 1.703.006 2.937-1.217 2.95-2.927.013-1.638-1.249-2.894-2.913-2.896-1.682-.004-2.93 1.212-2.942 2.864m0-20.832c.002 1.704 1.254 2.962 2.939 2.951 1.671-.011 2.927-1.298 2.916-2.988-.011-1.634-1.304-2.9-2.948-2.885-1.659.015-2.909 1.271-2.907 2.922m0-48.494c.009 1.703 1.269 2.952 2.957 2.932 1.671-.02 2.92-1.314 2.898-3.004-.021-1.609-1.286-2.86-2.903-2.869-1.683-.009-2.961 1.264-2.952 2.941m-1.096-6.988c-.008-1.561-1.309-2.882-2.874-2.892-1.63-.009-2.959 1.272-2.969 2.864-.011 1.716 1.199 3.004 2.874 2.996 1.808-.007 2.977-1.291 2.969-2.968m-.003 62.462a2.87 2.87 0 0 0-2.87-2.89c-1.656-.007-2.966 1.254-2.97 2.861-.005 1.732 1.202 2.962 2.906 2.961 1.726 0 2.92-1.194 2.934-2.932m0-6.969c.021-1.563-1.27-2.897-2.837-2.93-1.616-.034-2.98 1.253-3.003 2.834-.025 1.719 1.168 3.015 2.841 3.03 1.749.016 3.003-1.209 2.999-2.934m0 13.877a2.873 2.873 0 0 0-2.894-2.867c-1.654.005-2.95 1.275-2.946 2.887.005 1.726 1.22 2.944 2.93 2.936 1.719-.009 2.91-1.218 2.91-2.956m-5.84 6.919c-.014 1.736 1.183 2.976 2.882 2.985 1.731.008 2.932-1.173 2.957-2.909a2.87 2.87 0 0 0-2.845-2.913c-1.662-.015-2.981 1.234-2.994 2.837m0 6.943c-.002 1.729 1.208 2.956 2.914 2.954 1.721-.002 2.915-1.202 2.926-2.94a2.875 2.875 0 0 0-2.877-2.885c-1.653-.004-2.961 1.263-2.963 2.871m.988 53.375c-.838.708-1.175 1.813-.838 2.888a63 63 0 0 0 5.608-.486c.249-1.11-.52-2.294-1.485-2.795-1.061-.55-2.341-.404-3.285.393m-.987-4.877c-.037 1.748 1.179 3.045 2.876 3.064 1.682.019 2.925-1.203 2.962-2.914.035-1.565-1.242-2.908-2.809-2.954-1.618-.048-2.997 1.228-3.029 2.804m-.001-6.861c.013 1.726 1.235 2.933 2.951 2.915 1.717-.018 2.899-1.236 2.889-2.977-.008-1.583-1.312-2.855-2.915-2.843-1.653.013-2.937 1.288-2.925 2.905m5.839-27.66c.04-1.563-1.208-2.904-2.745-2.952-1.67-.052-3.04 1.16-3.093 2.738-.06 1.77 1.126 3.059 2.844 3.091s2.95-1.151 2.994-2.877m-5.839-7.054c.001 1.72 1.227 2.959 2.924 2.953 1.709-.006 2.911-1.225 2.916-2.959.006-1.573-1.311-2.889-2.887-2.885-1.645.004-2.954 1.286-2.953 2.891m-.003-41.671c-.013 1.719 1.179 3.001 2.844 3.03 1.728.029 2.974-1.189 2.999-2.934.023-1.562-1.263-2.926-2.836-2.923-1.852.004-2.996 1.413-3.007 2.827m-6.942-.002c-.006 1.726 1.172 2.998 2.845 3.033 1.736.037 2.966-1.167 2.995-2.93.094-1.587-1.298-2.915-2.828-2.925-1.932-.013-3.008 1.498-3.012 2.822m.005 6.937c-.015 1.721 1.18 2.997 2.864 3.013 1.719.015 3.002-1.21 2.971-2.957.083-1.652-1.421-2.888-2.851-2.911-1.626-.027-2.971 1.268-2.984 2.855m-.001-20.767c-.013 1.722 1.191 2.982 2.871 3.004 1.733.022 2.95-1.192 2.966-2.959.079-1.575-1.321-2.87-2.858-2.904-1.62-.038-2.966 1.274-2.979 2.859m5.845 27.753c.019-1.664-1.53-2.847-2.855-2.841-1.675.007-2.996 1.269-2.989 2.899.007 1.723 1.212 2.934 2.921 2.934 1.746 0 2.902-1.21 2.923-2.992m-.006 20.815a2.87 2.87 0 0 0-2.838-2.858c-1.653-.024-2.983 1.233-2.998 2.833-.016 1.739 1.181 2.983 2.876 2.991 1.759.008 2.961-1.196 2.96-2.966m-2.923-3.946c1.728-.005 2.912-1.197 2.922-2.941a2.867 2.867 0 0 0-2.874-2.882c-1.658-.002-2.958 1.258-2.961 2.87-.002 1.732 1.205 2.957 2.913 2.953m-2.913 10.849c-.01 1.703 1.182 2.962 2.827 2.985 1.76.025 2.99-1.172 3.008-2.927.076-1.608-1.334-2.891-2.851-2.916-1.636-.026-2.974 1.258-2.984 2.858m0 6.963c-.019 1.737 1.174 2.983 2.871 3 1.722.018 2.935-1.172 2.962-2.905.024-1.594-1.249-2.91-2.831-2.925-1.664-.016-2.984 1.229-3.002 2.83m.107 42.338c.966.208 4.861.246 5.613.055.313-1.27-.083-2.349-1.127-3.069-1.054-.726-2.35-.71-3.404.043-.977.698-1.387 1.825-1.082 2.971m-.109-7.639c-.013 1.743 1.225 3.034 2.932 3.007 1.746-.027 2.936-1.282 2.904-2.962.079-1.681-1.474-2.892-2.858-2.905-1.629-.015-2.966 1.271-2.978 2.86m0-6.921c.011 1.724 1.217 2.926 2.931 2.924 1.742-.002 2.918-1.218 2.906-3.002-.011-1.547-1.296-2.817-2.857-2.823-1.685-.006-2.991 1.265-2.98 2.901m-6.85 13.98c1.865.276 3.746.489 5.633.562.284-1.238-.099-2.254-1.081-2.954-1.005-.717-2.251-.754-3.302-.097-.911.57-1.417 1.558-1.25 2.489m-.085-7.113c-.037 1.757 1.177 3.075 2.874 3.054 2.053-.026 2.982-1.481 2.953-2.903.114-1.689-1.416-2.915-2.801-2.954-1.635-.046-2.993 1.219-3.026 2.803m-.001-6.947c-.021 1.726 1.139 2.967 2.8 2.996 1.807.032 2.994-1.099 3.028-2.885.029-1.576-1.208-2.89-2.757-2.93-1.709-.043-3.051 1.189-3.071 2.819m-6.614 12.809c1.848.421 3.646.832 5.497 1.051-.029-1.348-.949-2.405-2.28-2.699-1.274-.281-2.601.371-3.217 1.648m-14.187-130.689c-.021 1.718 1.188 2.991 2.866 3.02 1.663.028 2.958-1.235 2.988-2.916.028-1.593-1.24-2.917-2.818-2.941-1.728-.026-3.015 1.177-3.036 2.837m-6.933 117.943c-.001 1.73 1.2 2.938 2.92 2.937 1.711-.002 2.913-1.218 2.913-2.948 0-1.663-1.238-2.882-2.92-2.876-1.685.006-2.911 1.223-2.913 2.887m5.831-34.61c.036-1.667-1.159-2.925-2.831-2.98-1.65-.055-2.967 1.182-2.999 2.817-.034 1.714 1.128 2.986 2.769 3.033 1.757.05 3.023-1.137 3.061-2.87m-5.831-69.53c-.03 1.739 1.136 2.978 2.845 3.024 1.689.046 2.957-1.178 2.987-2.885.03-1.643-1.173-2.921-2.781-2.954-1.736-.036-3.021 1.15-3.051 2.815m0 6.992c-.026 1.728 1.171 2.996 2.854 3.023 1.693.027 2.949-1.197 2.978-2.903.029-1.653-1.2-2.93-2.853-2.966-1.65-.035-2.954 1.209-2.979 2.846m5.832 48.66c.014-1.669-1.209-2.903-2.884-2.91-1.691-.007-2.934 1.195-2.948 2.852-.014 1.737 1.172 2.96 2.885 2.972 1.717.013 2.933-1.19 2.947-2.914m-12.771 41.519c-.017 1.745 1.167 2.983 2.868 2.999 1.722.018 2.944-1.183 2.958-2.906.101-1.802-1.61-2.943-2.83-2.931-1.663.015-2.981 1.235-2.996 2.838m0-6.935c-.026 1.739 1.15 3.023 2.845 3.033 2.099.011 3.036-1.59 2.981-2.893.11-1.734-1.47-2.938-2.807-2.959-1.645-.027-2.996 1.228-3.019 2.819m5.826-13.753c.103-1.831-1.625-2.95-2.82-2.941-1.666.011-2.987 1.226-3.006 2.827-.02 1.747 1.158 2.989 2.857 3.01 1.724.023 2.951-1.175 2.969-2.896m-2.986-4.082c1.733.017 2.962-1.168 2.986-2.882.115-1.6-1.298-2.945-2.865-2.961-1.618-.016-2.936 1.242-2.961 2.813-.027 1.743 1.163 3.013 2.84 3.03m2.986 10.929c.072-1.683-1.573-2.894-2.905-2.858-1.647.045-2.931 1.294-2.921 2.915.011 1.705 1.203 2.916 2.88 2.926 1.743.01 2.955-1.217 2.946-2.983m-5.826-20.792c.003 1.736 1.206 2.947 2.92 2.941 1.721-.006 2.873-1.212 2.917-2.952.04-1.558-1.39-2.893-2.893-2.877-1.657.019-2.947 1.269-2.944 2.888m2.92-3.972c1.726-.009 2.874-1.21 2.916-2.951.04-1.655-1.518-2.906-2.892-2.878-1.658.034-2.947 1.27-2.944 2.888.003 1.738 1.206 2.95 2.92 2.941m-2.92-9.922c-.01 1.745 1.181 2.971 2.886 2.975 1.734.003 2.895-1.184 2.951-2.917.052-1.625-1.425-2.915-2.859-2.91-1.658.005-2.97 1.243-2.978 2.852m-1.111 13.907c.105-1.604-1.422-2.904-2.847-2.903-1.65.002-2.969 1.24-2.983 2.839-.015 1.742 1.162 2.977 2.855 2.995 1.764.018 2.962-1.162 2.975-2.931m-2.938-3.98c1.723.013 2.916-1.168 2.937-2.907.113-1.771-1.604-2.939-2.821-2.929-1.662.014-2.983 1.218-3.008 2.814-.028 1.77 1.159 3.01 2.892 3.022m2.937 10.919c.113-1.539-1.27-2.888-2.82-2.935-1.623-.048-2.984 1.232-3.009 2.819-.027 1.739 1.152 3.002 2.829 3.029 1.759.027 2.979-1.157 3-2.913m0 13.918c.019-1.588-1.249-2.907-2.816-2.928-1.661-.022-2.986 1.211-3.013 2.803-.03 1.765 1.16 3.017 2.887 3.037 1.704.019 2.92-1.185 2.942-2.912m0-6.919c.022-1.594-1.238-2.916-2.803-2.941-1.664-.025-2.993 1.2-3.026 2.789-.035 1.768 1.146 3.021 2.874 3.049 1.705.028 2.93-1.173 2.955-2.897M621.303 274c-.024 1.755 1.187 3.024 2.899 3.04 1.681.016 2.913-1.22 2.93-2.939.107-1.722-1.527-2.922-2.827-2.928-1.641-.009-2.98 1.241-3.002 2.827m0-90.23c-.021 1.758 1.189 3.015 2.908 3.022 1.695.007 2.905-1.211 2.921-2.94.104-1.774-1.622-2.929-2.837-2.917-1.652.016-2.974 1.241-2.992 2.835m0 6.959c-.03 1.76 1.177 3.033 2.886 3.046 1.705.013 2.921-1.192 2.943-2.917.115-1.547-1.265-2.921-2.876-2.947-1.605-.026-2.927 1.26-2.953 2.818m-6.936 27.749c-.013 1.729 1.19 2.991 2.864 3.003 1.738.013 2.952-1.202 2.963-2.966.093-1.556-1.347-2.881-2.861-2.897-1.642-.019-2.953 1.258-2.966 2.86m.001 6.93c-.035 1.73 1.112 2.999 2.741 3.033 1.843.039 3.054-1.092 3.084-2.879.121-1.713-1.499-2.94-2.801-2.944-1.671-.006-2.992 1.191-3.024 2.79m5.836 7.034c.052-1.617-1.468-2.908-2.865-2.892-1.671.019-2.958 1.231-2.972 2.842-.014 1.748 1.163 2.977 2.858 2.984 1.783.006 2.921-1.154 2.979-2.934m-5.837 6.925c-.003 1.751 1.186 2.962 2.902 2.954 1.777-.007 2.902-1.19 2.933-2.992.028-1.659-1.595-2.864-2.875-2.834-1.676.039-2.957 1.249-2.96 2.872m5.837 6.918c.046-1.606-1.474-2.9-2.882-2.876-1.671.03-2.947 1.242-2.955 2.859-.008 1.745 1.173 2.964 2.874 2.967 1.775.003 2.911-1.167 2.963-2.95m-12.881-.128c-.053 1.724 1.092 3.027 2.705 3.075 1.854.057 3.067-1.046 3.122-2.837.136-1.83-1.555-2.966-2.756-2.986-1.664-.026-3.023 1.168-3.071 2.748m-.001-6.821c-.016 1.742 1.164 2.974 2.86 2.986 1.782.012 2.949-1.139 2.97-2.93a2.86 2.86 0 0 0-2.849-2.888c-1.67-.004-2.965 1.227-2.981 2.832m-6.777-.974c-.082.186-.188.361-.282.541v1.009c.083.137.192.266.245.414.499 1.392 1.492 2.058 2.983 1.989 2.137-.1 3.449-2.384 2.411-4.255-.597-1.075-1.544-1.639-2.802-1.543-1.216.092-2.063.729-2.555 1.845m5.548-32.801c.465-1.58-.444-3.252-2.017-3.604a61 61 0 0 0-1.85 5.464c1.725.624 3.379-.205 3.867-1.86m.115 6.07c.014-2.116-2.113-3.526-4.074-2.705-.27.113-.438.269-.507.577a65 65 0 0 1-.769 3.179c-.112.407.002.68.26.961.793.867 2.078 1.161 3.242.729 1.131-.419 1.84-1.471 1.848-2.741m-.305 19.483c-.584-1.055-1.509-1.619-2.745-1.546-1.248.073-2.117.711-2.616 1.857-.082.187-.186.365-.279.548v.882c.081.168.181.331.243.507.485 1.379 1.445 2.046 2.911 2.011 2.174-.051 3.537-2.358 2.486-4.259m7.234-40.686c-.097-1.046-.918-2.005-2.042-2.307l-2.871 4.799c.612.786 2.114 1.144 3.366.551 1.104-.522 1.677-1.649 1.547-3.043m.014 7.365c.109-1.575-1.268-2.925-2.808-2.937-1.999-.016-3.013 1.512-3.025 2.801-.015 1.733 1.16 3.015 2.825 3.046 1.761.032 2.972-1.139 3.008-2.91m.001 6.939c.105-1.652-1.394-2.907-2.818-2.93-1.648-.028-2.987 1.222-3.012 2.812-.027 1.712 1.137 2.987 2.766 3.027 1.816.045 3.031-1.109 3.064-2.909m0 6.885c.093-1.578-1.321-2.879-2.844-2.913-1.637-.035-2.97 1.255-2.986 2.847-.018 1.728 1.183 2.995 2.855 3.013 1.753.018 2.952-1.169 2.975-2.947m.001 13.896c.091-1.718-1.545-2.913-2.85-2.896-1.666.021-2.966 1.236-2.981 2.84-.016 1.714 1.154 2.963 2.797 2.984 1.832.026 3.012-1.114 3.034-2.928m.008 6.908c.043-1.69-1.55-2.899-2.882-2.872-1.666.034-2.95 1.254-2.957 2.864-.007 1.736 1.186 2.961 2.884 2.962 1.776.002 2.909-1.16 2.955-2.954m1.203 27.707c-.02 1.766 1.178 3.009 2.907 3.016 1.706.007 2.909-1.199 2.923-2.931.012-1.585-1.265-2.893-2.838-2.907-1.657-.015-2.973 1.227-2.992 2.822m.001-6.998c-.029 1.743 1.148 3.004 2.825 3.031 1.76.027 2.984-1.161 3.003-2.911.115-1.512-1.243-2.886-2.819-2.937-1.624-.052-2.984 1.228-3.009 2.817m5.828-69.289c.12-1.649-1.572-3.119-3.303-2.877-.339.047-.631.161-.855.46-.451.605-.946 1.178-1.4 1.781-.13.174-.243.403-.257.614-.086 1.299.768 2.534 2.023 2.842 2.194.539 3.831-.867 3.792-2.82m.001 6.963c.094-1.458-1.232-2.865-2.869-2.889-1.646-.023-2.947 1.261-2.958 2.867-.011 1.732 1.192 2.984 2.872 2.989 1.752.006 2.945-1.193 2.955-2.967m.01 6.913c.036-1.451-1.259-2.861-2.899-2.869-1.656-.008-2.935 1.275-2.938 2.887-.003 1.729 1.208 2.972 2.893 2.968 1.75-.004 2.899-1.208 2.944-2.986m6.928-20.776c.097-1.697-1.487-2.9-2.856-2.92-1.624-.025-2.968 1.275-2.973 2.867-.006 1.727 1.2 3.002 2.895 2.993 1.97-.011 2.99-1.495 2.934-2.94m.001 48.577c.104-1.62-1.439-2.907-2.846-2.903-1.654.005-2.969 1.238-2.984 2.837-.017 1.741 1.161 2.978 2.854 2.996 1.763.02 2.962-1.161 2.976-2.93m0 6.843c-.015-1.54-1.312-2.807-2.873-2.807-1.681 0-2.974 1.277-2.957 2.921.018 1.725 1.222 2.914 2.944 2.906 1.737-.009 2.903-1.228 2.886-3.02m6.937-62.307c.084-1.395-.986-2.419-1.9-2.76-.327-.122-.591-.109-.876.102q-1.337.992-2.696 1.953c-.27.189-.365.41-.36.737.028 1.614 1.27 2.869 2.879 2.885 1.69.016 2.937-1.215 2.953-2.917m.001 6.906c.101-1.658-1.399-2.914-2.829-2.94-1.638-.028-2.982 1.247-2.998 2.843-.018 1.732 1.183 2.997 2.866 3.02 1.69.023 2.945-1.216 2.961-2.923m-5.827 6.832c-.011 1.739 1.185 2.981 2.882 2.991 1.712.011 2.934-1.204 2.944-2.927.095-1.77-1.587-2.931-2.845-2.92-1.654.015-2.97 1.252-2.981 2.856m5.827 7.045c.101-1.452-1.158-2.906-2.847-2.914-1.929-.009-3 1.512-2.987 2.854.016 1.729 1.209 2.99 2.892 2.996 1.706.006 2.931-1.217 2.942-2.936m.521 34.6c.02-1.572-1.466-2.834-2.872-2.822-1.677.015-2.982 1.282-2.969 2.919.015 1.721 1.223 2.92 2.939 2.915 1.741-.005 2.88-1.223 2.902-3.012m6.423-55.359c.033-1.657-1.189-2.94-2.838-2.979-1.655-.039-2.963 1.197-2.994 2.829-.032 1.729 1.151 2.997 2.839 3.043 1.674.045 2.958-1.196 2.993-2.893m.001 6.873c.017-1.657-1.225-2.923-2.877-2.933-1.673-.01-2.938 1.214-2.956 2.86-.019 1.723 1.178 2.973 2.878 3.005 1.664.032 2.938-1.232 2.955-2.932m0 69.322c-.005-1.658-1.256-2.879-2.934-2.864-1.684.016-2.902 1.236-2.899 2.904.004 1.725 1.211 2.928 2.934 2.923 1.703-.004 2.905-1.233 2.899-2.963m6.954-83.195c0-1.673-1.445-3.003-2.918-2.907-1.671.004-2.936 1.241-2.936 2.875-.001 1.714 1.22 2.968 2.904 2.984 1.649.016 2.951-1.285 2.95-2.952m1.084 131.81c.004 1.711 1.251 2.972 2.927 2.96 1.668-.012 2.934-1.298 2.933-2.978-.001-1.607-1.319-2.896-2.948-2.884-1.671.012-2.915 1.252-2.912 2.902m5.86-131.845c-.006-1.559-1.29-2.865-2.826-2.875-1.723-.012-3.019 1.206-3.034 2.851-.015 1.72 1.192 2.984 2.874 3.011 1.682.026 2.993-1.285 2.986-2.987m0 55.473c.015-1.534-1.354-2.9-2.893-2.886-1.644.015-2.953 1.29-2.959 2.885-.007 1.715 1.219 2.978 2.893 2.98 1.745.001 2.942-1.204 2.959-2.979m.001 6.926c-.011-1.53-1.323-2.818-2.874-2.819-1.662-.002-2.964 1.24-2.979 2.841-.017 1.727 1.185 2.973 2.874 2.978 1.796.006 2.992-1.199 2.979-3m6.95-13.884c-.005-1.506-1.345-2.874-2.864-2.851-1.916.03-3.009 1.46-3 2.904.01 1.709 1.249 2.964 2.926 2.953 1.735-.012 2.942-1.248 2.938-3.006m0 6.929c-.006-1.505-1.347-2.874-2.866-2.849-1.917.031-3.007 1.463-2.998 2.906.01 1.708 1.25 2.963 2.927 2.951 1.735-.013 2.943-1.25 2.937-3.008m0 7.001c.015-1.546-1.324-2.871-2.897-2.865-1.659.007-2.957 1.257-2.966 2.858-.009 1.72 1.203 2.96 2.895 2.961 1.763.002 2.949-1.179 2.968-2.954m0 69.334c-.01-1.509-1.353-2.838-2.874-2.845-1.663-.009-2.997 1.294-2.989 2.917.009 1.703 1.274 2.975 2.934 2.949 1.737-.027 2.941-1.269 2.929-3.021m6.88-103.96c.113-1.579-1.276-2.888-2.807-2.948-1.621-.065-2.991 1.225-3.021 2.81-.032 1.734 1.153 3.015 2.819 3.047 1.76.034 2.977-1.143 3.009-2.909m0 6.915c.106-1.563-1.278-2.882-2.824-2.931-1.63-.051-2.98 1.238-3.004 2.828-.025 1.731 1.168 3.006 2.836 3.029 1.762.024 2.966-1.154 2.992-2.926m.001 6.936c.102-1.61-1.373-2.896-2.837-2.911-1.653-.017-2.973 1.234-2.992 2.831-.021 1.735 1.172 2.995 2.847 3.009 1.775.014 2.958-1.149 2.982-2.929m0 6.911c.098-1.575-1.309-2.882-2.837-2.92-1.636-.04-2.972 1.247-2.992 2.841-.021 1.728 1.177 2.998 2.848 3.019 1.755.021 2.959-1.167 2.981-2.94m-5.829 6.838c-.019 1.726 1.179 3.019 2.852 3.013 1.991-.008 3.014-1.406 2.976-2.943.099-1.637-1.407-2.893-2.84-2.915-1.639-.025-2.97 1.251-2.988 2.845m5.829 7.038c.09-1.687-1.517-2.877-2.799-2.882-1.691-.008-3.019 1.22-3.03 2.851-.011 1.714 1.16 2.953 2.809 2.973 1.827.021 3.005-1.126 3.02-2.942m.009 6.926c.039-1.616-1.444-2.896-2.891-2.876-1.656.022-2.948 1.271-2.946 2.886.002 1.733 1.207 2.947 2.921 2.941 1.722-.006 2.874-1.206 2.916-2.951m.88-.015c-.014 1.708 1.222 2.966 2.914 2.966 1.716 0 2.944-1.216 2.954-2.926.01-1.576-1.292-2.886-2.878-2.896-1.651-.01-2.977 1.256-2.99 2.856m.213-41.676c-.009 1.727 1.168 3.003 2.839 3.039 1.738.039 2.97-1.161 3.001-2.923.096-1.588-1.287-2.918-2.821-2.931-1.951-.016-3.012 1.507-3.019 2.815m2.975-9.792c-1.647-.005-2.961 1.258-2.971 2.854-.01 1.724 1.178 2.961 2.878 2.995 1.708.035 2.945-1.206 2.959-2.967.013-1.569-1.289-2.878-2.866-2.882m-1.25-44.986c51.04 0 92.563 41.523 92.563 92.562s-41.523 92.562-92.563 92.562-92.562-41.523-92.562-92.562 41.523-92.562 92.562-92.562m0-9.776c-56.429 0-102.338 45.909-102.338 102.338s45.909 102.338 102.338 102.338 102.338-45.909 102.338-102.338-45.909-102.338-102.338-102.338m-33.858-20.588c-.843-2.57-3.604-3.97-6.159-3.141a4.88 4.88 0 0 0-3.142 6.16 4.87 4.87 0 0 0 4.637 3.372c.504 0 1.02-.068 1.523-.232 2.557-.842 3.97-3.589 3.141-6.159m19.648-3.903a4.89 4.89 0 0 0-5.588-4.079 4.887 4.887 0 0 0-4.066 5.589 4.876 4.876 0 0 0 4.813 4.133c.259 0 .517-.027.776-.068h-.014a4.867 4.867 0 0 0 4.079-5.575M805 228.502C805 155.44 745.56 96 672.499 96a4.887 4.887 0 0 0 0 9.776c67.672 0 122.725 55.055 122.725 122.726 0 67.669-55.053 122.722-122.725 122.722-67.67 0-122.723-55.053-122.723-122.722 0-39.709 19.36-77.152 51.79-100.162a4.887 4.887 0 1 0-5.657-7.972c-.39.277-.769.566-1.156.847-.046.031-.096.05-.141.082-.048.035-.084.081-.131.117a132.4 132.4 0 0 0-15.441 13.199c-.074.066-.157.115-.228.186-.065.067-.111.144-.172.213a133 133 0 0 0-13.024 15.247c-.101.114-.213.214-.305.34-.077.105-.126.22-.192.329a133 133 0 0 0-10.321 16.803c-.133.189-.27.374-.379.585-.13.257-.224.523-.306.789a133 133 0 0 0-7.357 17.745c-.107.215-.215.429-.291.665-.077.233-.114.468-.154.703a132 132 0 0 0-4.595 19.162c-.028.12-.073.231-.092.354-.016.097-.007.192-.016.288a132 132 0 0 0-1.608 20.48C540 301.562 599.439 361 672.499 361 745.56 361 805 301.562 805 228.502">
  </path>
  <circle cx="11.5" cy="11.5" r="10.25" stroke="#0095D5" stroke-width="2.5" transform="matrix(-1 0 0 1 262 216)">
  </circle>
  <path stroke="#0095D5" stroke-width="2.5" d="M424 228.25H261"></path>
  <circle cx="11.5" cy="11.5" r="10.25" stroke="#0095D5" stroke-width="2.5" transform="matrix(-1 0 0 1 262 358)">
  </circle>
  <path stroke="#0095D5" stroke-width="2.5"
    d="M261.5 370h30.342a8 8 0 0 0 8-8v-76a8 8 0 0 1 8-8H424M261 90h31.08a8 8 0 0 1 8 8v72a8 8 0 0 0 8 8H424"></path>
  <circle cx="11.5" cy="11.5" r="10.25" stroke="#0095D5" stroke-width="2.5" transform="matrix(-1 0 0 1 262 79)">
  </circle>
</svg>
