<svg fill="none" xmlns="http://www.w3.org/2000/svg" viewBox="0 4 381 289">
  <circle cx="11.5" cy="11.5" r="10.25" transform="matrix(-1 0 0 1 23 137)" stroke="#0095D5" stroke-width="2.5">
  </circle>
  <line x1="82" y1="149.25" x2="22" y2="149.25" stroke="#0095D5" stroke-width="2.5"></line>
  <circle cx="11.5" cy="11.5" r="10.25" transform="matrix(-1 0 0 1 23 268)" stroke="#0095D5" stroke-width="2.5">
  </circle>
  <path
    d="M22 280L28.1572 280C32.5755 280 36.1572 276.418 36.1572 272L36.1572 196C36.1572 191.582 39.7389 188 44.1572 188L82 188"
    stroke="#0095D5" stroke-width="2.5"></path>
  <path
    d="M22 23L28.3852 23C32.8035 23 36.3852 26.5817 36.3852 31L36.3852 103C36.3852 107.418 39.9669 111 44.3852 111L82 111"
    stroke="#0095D5" stroke-width="2.5"></path>
  <circle cx="11.5" cy="11.5" r="10.25" transform="matrix(-1 0 0 1 23 12)" stroke="#0095D5" stroke-width="2.5"></circle>
  <circle cx="236.5" cy="148.5" r="144.5" fill="#EBFF00"></circle>
  <circle cx="236.5" cy="148.5" r="133.726" fill="#5EB2D7"></circle>
  <circle cx="236.5" cy="148.5" r="121.684" fill="#0095D5"></circle>
  <circle cx="236.5" cy="148.5" r="100.77" fill="#002A3C"></circle>
  <path
    d="M202.219 75.3254C201.444 73.809 199.574 73.1971 198.057 73.9811C196.532 74.7568 195.929 76.627 196.704 78.1432C197.247 79.2205 198.342 79.8323 199.462 79.8323C199.936 79.8323 200.418 79.7294 200.866 79.4964C202.392 78.7206 202.995 76.8507 202.219 75.3254ZM238.903 124.874C238.886 125.966 239.638 126.784 240.691 126.808C241.787 126.833 242.582 126.067 242.605 124.963C242.625 123.97 241.825 123.106 240.821 123.097C239.676 123.087 238.917 123.954 238.903 124.874ZM238.903 129.253C238.879 130.35 239.631 131.176 240.687 131.201C241.79 131.227 242.584 130.461 242.605 129.35C242.623 128.355 241.808 127.489 240.806 127.49C239.659 127.492 238.923 128.357 238.903 129.253ZM238.904 120.485C238.897 121.581 239.664 122.373 240.736 122.378C241.82 122.383 242.591 121.616 242.605 120.521C242.618 119.518 241.799 118.684 240.795 118.677C239.748 118.67 238.91 119.47 238.904 120.485ZM242.595 102.592C242.554 102.163 242.516 102.115 242.102 102.079C241.322 102.011 240.542 101.956 239.762 101.89C239.634 101.879 239.507 101.844 239.379 101.82H239.219C238.505 102.802 239.038 104.293 240.217 104.605C241.559 104.96 242.726 103.972 242.595 102.592ZM246.94 102.871C245.783 102.661 244.611 102.448 243.424 102.232C243.16 102.979 243.385 103.786 243.94 104.254C244.513 104.737 245.401 104.817 246.077 104.447C246.66 104.128 247.019 103.498 246.94 102.871ZM247.012 107.335C247.009 106.297 246.197 105.499 245.151 105.504C244.097 105.509 243.303 106.3 243.302 107.346C243.301 108.428 244.091 109.226 245.158 109.222C246.217 109.219 247.016 108.406 247.012 107.335ZM243.302 116.136C243.303 117.215 244.097 118.012 245.164 118.005C246.224 117.998 247.02 117.183 247.012 116.112C247.005 115.073 246.194 114.281 245.145 114.288C244.091 114.295 243.301 115.088 243.302 116.136ZM243.302 120.476C243.287 121.569 244.042 122.358 245.124 122.378C246.191 122.397 246.991 121.615 247.012 120.534C247.032 119.513 246.244 118.693 245.226 118.677C244.131 118.658 243.317 119.42 243.302 120.476ZM247.012 124.923C247.008 123.889 246.184 123.079 245.148 123.088C244.095 123.099 243.302 123.893 243.302 124.938C243.301 126.02 244.087 126.811 245.16 126.808C246.222 126.805 247.017 125.997 247.012 124.923ZM247.012 129.32C247.011 128.287 246.188 127.474 245.152 127.482C244.099 127.49 243.303 128.283 243.302 129.328C243.3 130.411 244.083 131.202 245.157 131.201C246.219 131.2 247.014 130.395 247.012 129.32ZM247.012 138.117C247.02 137.086 246.204 136.268 245.165 136.265C244.116 136.262 243.309 137.057 243.302 138.098C243.295 139.183 244.072 139.98 245.143 139.985C246.208 139.99 247.005 139.194 247.012 138.117ZM251.416 133.739C251.406 132.624 250.457 131.901 249.601 131.896C248.444 131.889 247.689 132.801 247.693 133.72C247.698 134.805 248.468 135.597 249.54 135.6C250.605 135.602 251.426 134.799 251.416 133.739ZM249.564 131.203C250.6 131.197 251.411 130.398 251.416 129.352C251.421 128.299 250.543 127.443 249.576 127.503C248.398 127.462 247.696 128.423 247.694 129.301C247.691 130.402 248.477 131.208 249.564 131.203ZM247.693 124.911C247.693 126.012 248.48 126.817 249.567 126.81C250.601 126.803 251.414 126 251.416 124.956C251.418 123.91 250.553 123.052 249.573 123.109C248.381 123.073 247.694 124.044 247.693 124.911ZM249.548 122.386C250.598 122.387 251.436 121.559 251.416 120.508C251.393 119.31 250.373 118.594 249.553 118.681C248.493 118.684 247.697 119.466 247.695 120.506C247.693 121.587 248.48 122.384 249.548 122.386ZM251.416 107.335C251.382 106.258 250.482 105.463 249.579 105.512C248.502 105.513 247.692 106.306 247.696 107.357C247.7 108.43 248.501 109.233 249.56 109.226C250.605 109.219 251.448 108.373 251.416 107.335ZM251.416 111.739C251.394 110.657 250.503 109.875 249.584 109.915C248.498 109.911 247.693 110.694 247.696 111.753C247.698 112.832 248.49 113.63 249.556 113.627C250.603 113.623 251.438 112.788 251.416 111.739ZM251.419 116.115C251.406 115.107 250.588 114.297 249.58 114.296C248.496 114.294 247.692 115.08 247.695 116.137C247.699 117.213 248.501 118.018 249.56 118.009C250.607 118.001 251.432 117.16 251.419 116.115ZM251.419 142.493C251.418 141.491 250.596 140.665 249.593 140.659C248.505 140.653 247.697 141.433 247.696 142.489C247.694 143.569 248.482 144.371 249.547 144.373C250.592 144.375 251.421 143.543 251.419 142.493ZM247.694 151.343C247.712 152.407 248.478 153.176 249.54 153.179C250.607 153.182 251.428 152.381 251.416 151.322C251.404 150.159 250.397 149.385 249.561 149.498C248.604 149.409 247.675 150.25 247.694 151.343ZM247.694 155.723C247.702 156.808 248.478 157.58 249.558 157.586C250.544 157.591 251.404 156.867 251.415 155.707C251.424 154.695 250.599 153.897 249.583 153.897C248.589 153.811 247.686 154.661 247.694 155.723ZM247.694 146.93C247.702 148.012 248.479 148.789 249.56 148.785C250.4 148.824 251.41 148.203 251.412 146.908C251.413 145.811 250.454 145.069 249.54 145.083C248.61 145.098 247.686 145.842 247.694 146.93ZM255.812 107.313C255.78 106.104 254.755 105.488 253.974 105.491C252.984 105.494 252.11 106.238 252.093 107.35C252.095 108.408 252.872 109.198 253.922 109.21C254.981 109.221 255.84 108.375 255.812 107.313ZM255.816 111.764C255.833 110.755 254.991 109.912 253.966 109.912C252.904 109.912 252.1 110.691 252.092 111.727C252.085 112.813 252.864 113.618 253.928 113.626C254.982 113.633 255.798 112.829 255.816 111.764ZM255.816 116.131C255.823 115.118 254.986 114.291 253.954 114.294C252.895 114.296 252.095 115.082 252.092 116.12C252.09 117.201 252.879 118.007 253.94 118.008C254.992 118.009 255.808 117.192 255.816 116.131ZM252.092 124.937C252.095 126.02 252.881 126.813 253.95 126.809C255.008 126.806 255.824 125.992 255.813 124.929C255.803 123.933 254.994 123.075 253.944 123.099C252.88 123.124 252.09 123.894 252.092 124.937ZM252.093 129.285C252.075 130.373 252.845 131.188 253.905 131.202C254.988 131.217 255.821 130.409 255.813 129.328C255.806 128.313 254.981 127.473 253.989 127.497C252.917 127.489 252.11 128.249 252.093 129.285ZM256.496 116.095C256.476 117.167 257.262 118.007 258.32 117.998C259.484 117.989 260.189 117.245 260.214 116.13C260.235 115.151 259.382 114.294 258.396 114.289C257.359 114.284 256.515 115.087 256.496 116.095ZM256.496 120.49C256.478 121.562 257.265 122.402 258.321 122.391C259.494 122.38 260.19 121.629 260.214 120.521C260.235 119.542 259.38 118.686 258.394 118.682C257.357 118.678 256.513 119.481 256.496 120.49ZM260.215 111.784C260.243 110.819 259.411 109.926 258.423 109.911C257.445 109.896 256.551 110.572 256.499 111.686C256.449 112.752 257.235 113.607 258.288 113.619C259.333 113.631 260.161 113.002 260.215 111.784ZM260.216 124.905C260.213 123.934 259.332 123.071 258.363 123.091C257.32 123.113 256.492 123.931 256.496 124.935C256.5 126.016 257.29 126.812 258.352 126.807C259.452 126.801 260.22 126.018 260.216 124.905ZM260.216 129.307C260.217 128.335 259.342 127.471 258.371 127.485C257.332 127.499 256.497 128.316 256.496 129.32C256.494 130.4 257.282 131.202 258.344 131.2C259.445 131.198 260.215 130.419 260.216 129.307ZM269.01 129.335C269.016 128.348 268.19 127.487 267.198 127.489C266.173 127.492 265.303 128.231 265.296 129.329C265.29 130.392 266.071 131.188 267.109 131.201C268.201 131.215 269.003 130.427 269.01 129.335ZM269.009 124.976C269.028 123.966 268.2 123.089 267.192 123.096C266.187 123.102 265.326 123.814 265.295 124.901C265.266 125.972 266.062 126.797 267.115 126.808C268.19 126.82 268.989 126.046 269.009 124.976ZM269.01 133.726C269.011 132.734 268.171 131.896 267.176 131.895C266.139 131.894 265.291 132.717 265.293 133.724C265.295 134.811 266.078 135.601 267.151 135.598C268.23 135.595 269.009 134.81 269.01 133.726ZM269.01 173.309C269.017 172.306 268.197 171.474 267.193 171.467C266.146 171.461 265.305 172.259 265.293 173.273C265.28 174.353 266.065 175.16 267.134 175.164C268.217 175.168 269.002 174.393 269.01 173.309ZM269.01 142.5C269.011 141.515 268.175 140.653 267.186 140.665C266.177 140.677 265.322 141.392 265.295 142.477C265.269 143.547 266.067 144.369 267.121 144.378C268.21 144.387 269.008 143.594 269.01 142.5ZM265.293 138.091C265.283 139.164 266.072 139.979 267.128 139.985C268.216 139.991 269.011 139.196 269.01 138.1C269.009 137.117 268.166 136.272 267.18 136.267C266.16 136.262 265.302 137.091 265.293 138.091ZM273.407 120.543C273.417 119.543 272.601 118.699 271.607 118.682C270.588 118.664 269.716 119.487 269.695 120.485C269.672 121.557 270.462 122.384 271.52 122.398C272.579 122.411 273.396 121.608 273.407 120.543ZM273.408 168.913C273.412 167.867 272.62 167.075 271.567 167.073C270.501 167.07 269.711 167.836 269.695 168.886C269.679 169.964 270.458 170.761 271.537 170.769C272.609 170.778 273.403 169.99 273.408 168.913ZM273.408 138.125C273.414 137.083 272.614 136.274 271.571 136.265C270.526 136.256 269.714 137.047 269.696 138.09C269.677 139.163 270.467 139.978 271.533 139.985C272.6 139.993 273.402 139.196 273.408 138.125ZM273.408 124.943C273.412 123.902 272.61 123.094 271.566 123.088C270.521 123.083 269.71 123.876 269.695 124.918C269.681 125.993 270.47 126.802 271.538 126.808C272.604 126.813 273.404 126.015 273.408 124.943ZM273.408 129.331C273.41 128.293 272.601 127.482 271.561 127.482C270.513 127.481 269.706 128.276 269.695 129.317C269.685 130.393 270.474 131.198 271.544 131.201C272.609 131.204 273.406 130.405 273.408 129.331ZM277.547 125.931C277.638 125.775 277.694 125.633 277.581 125.452C277.131 124.731 276.689 124.005 276.251 123.277C276.153 123.115 276.023 123.079 275.849 123.09C274.846 123.155 274.115 123.919 274.107 124.917C274.099 125.812 274.612 126.513 275.434 126.731C276.284 126.956 277.136 126.632 277.547 125.931ZM277.808 129.329C277.811 128.306 277.015 127.49 276.005 127.483C274.927 127.475 274.113 128.262 274.106 129.318C274.1 130.408 274.872 131.198 275.945 131.201C276.999 131.204 277.804 130.395 277.808 129.329ZM277.808 133.737C277.811 132.692 277.014 131.892 275.967 131.89C274.91 131.887 274.116 132.667 274.106 133.717C274.097 134.81 274.863 135.595 275.943 135.598C277.018 135.601 277.805 134.816 277.808 133.737ZM277.81 142.489C277.814 141.618 277.059 140.629 275.975 140.677C274.917 140.639 274.09 141.45 274.09 142.516C274.089 143.597 274.892 144.386 275.96 144.38C277.015 144.374 277.806 143.556 277.81 142.489ZM277.803 151.286C277.798 150.25 276.987 149.462 275.935 149.473C274.875 149.484 274.097 150.267 274.101 151.318C274.105 152.405 274.878 153.173 275.965 153.17C277.027 153.167 277.808 152.367 277.803 151.286ZM275.935 148.777C277.006 148.783 277.797 147.997 277.803 146.923C277.809 145.879 277.018 145.085 275.966 145.079C274.906 145.073 274.117 145.841 274.101 146.895C274.085 147.978 274.858 148.771 275.935 148.777ZM281.763 147.816C281.852 147.643 281.899 147.449 281.965 147.264V146.546C281.894 146.363 281.841 146.171 281.747 146.002C281.3 145.197 280.318 144.862 279.433 145.203C278.59 145.527 278.123 146.432 278.327 147.346C278.499 148.123 279.087 148.667 279.859 148.766C280.666 148.87 281.408 148.505 281.763 147.816ZM278.294 151.503C278.354 152.337 278.946 152.993 279.779 153.148C280.616 153.304 281.46 152.887 281.8 152.14C281.87 151.986 281.911 151.818 281.965 151.657V150.938C281.9 150.768 281.849 150.59 281.765 150.43C281.353 149.651 280.453 149.29 279.584 149.546C278.729 149.797 278.227 150.56 278.294 151.503ZM278.282 142.692C278.352 143.546 278.935 144.198 279.8 144.357C280.615 144.506 281.483 144.056 281.808 143.311C281.87 143.169 281.913 143.018 281.965 142.872V142.153C281.893 141.971 281.839 141.78 281.746 141.61C281.317 140.832 280.424 140.483 279.548 140.749C278.835 140.965 278.198 141.666 278.282 142.692ZM274.151 173.766C274.319 174.541 275.013 175.136 275.744 175.101C276.325 174.174 276.916 173.231 277.494 172.31C277.112 171.574 275.999 171.253 275.183 171.616C274.368 171.977 273.95 172.835 274.151 173.766ZM274.1 168.876C274.083 169.947 274.839 170.736 275.901 170.754C276.96 170.772 277.775 170.005 277.802 168.964C277.83 167.911 277.053 167.087 276.013 167.068C274.915 167.048 274.117 167.802 274.1 168.876ZM274.087 155.736C274.102 156.818 274.889 157.592 275.967 157.583C277.03 157.575 277.808 156.765 277.811 155.694C277.814 154.847 277.046 153.82 275.887 153.887C274.869 153.945 274.073 154.716 274.087 155.736ZM273.408 133.712C273.402 132.677 272.577 131.873 271.538 131.89C270.481 131.907 269.688 132.704 269.695 133.743C269.703 134.829 270.483 135.603 271.566 135.598C272.632 135.594 273.414 134.793 273.408 133.712ZM269.695 177.688C269.685 178.756 270.481 179.576 271.546 179.573C272.026 179.571 272.468 179.46 272.76 179.018C272.87 178.853 273.031 178.721 273.135 178.553C273.243 178.377 273.355 178.182 273.387 177.983C273.569 176.855 272.705 175.864 271.56 175.863C270.503 175.862 269.705 176.644 269.695 177.688ZM269.695 173.284C269.682 174.361 270.464 175.158 271.541 175.163C272.613 175.169 273.405 174.38 273.408 173.302C273.411 172.258 272.615 171.466 271.563 171.466C270.497 171.466 269.708 172.234 269.695 173.284ZM265.293 182.159C265.303 183.245 266.09 184.031 267.159 184.022C268.164 184.055 269.034 183.192 269.013 182.143C268.993 181.132 268.157 180.316 267.126 180.33C266.109 180.345 265.285 181.167 265.293 182.159ZM265.293 177.673C265.277 178.743 266.064 179.561 267.122 179.576C268.202 179.592 269.008 178.788 269.01 177.695C269.011 176.704 268.18 175.87 267.186 175.864C266.154 175.858 265.308 176.666 265.293 177.673ZM265.293 120.523C265.302 121.6 266.1 122.406 267.151 122.398C268.222 122.39 269.004 121.601 269.01 120.526C269.015 119.534 268.189 118.694 267.196 118.682C266.153 118.669 265.285 119.509 265.293 120.523ZM265.29 116.107C265.278 117.189 266.097 118.019 267.165 118.008C268.229 117.998 269.006 117.202 269.009 116.121C269.013 115.135 268.174 114.293 267.185 114.289C266.169 114.284 265.3 115.118 265.29 116.107ZM260.896 177.661C260.896 178.707 261.547 179.551 262.751 179.576C263.816 179.599 264.6 178.796 264.613 177.71C264.624 176.722 263.792 175.874 262.801 175.863C261.768 175.853 260.897 176.656 260.896 177.661ZM260.892 173.29C260.892 174.368 261.672 175.16 262.743 175.168C263.833 175.176 264.616 174.384 264.613 173.275C264.611 172.288 263.771 171.464 262.769 171.467C261.732 171.469 260.892 172.285 260.892 173.29ZM260.892 138.091C260.885 139.167 261.67 139.976 262.73 139.986C263.82 139.997 264.61 139.206 264.613 138.102C264.616 137.125 263.761 136.268 262.781 136.267C261.759 136.265 260.899 137.096 260.892 138.091ZM260.892 133.707C260.882 134.802 261.675 135.602 262.766 135.599C263.84 135.596 264.609 134.816 264.613 133.726C264.617 132.745 263.772 131.897 262.785 131.893C261.756 131.888 260.901 132.707 260.892 133.707ZM260.892 129.311C260.886 130.404 261.688 131.21 262.773 131.202C263.841 131.195 264.612 130.404 264.613 129.316C264.614 128.338 263.759 127.484 262.779 127.483C261.756 127.483 260.897 128.315 260.892 129.311ZM260.892 124.932C260.897 126.012 261.683 126.807 262.748 126.809C263.834 126.812 264.618 126.013 264.613 124.908C264.608 123.933 263.738 123.077 262.764 123.089C261.736 123.103 260.887 123.938 260.892 124.932ZM260.892 120.516C260.895 121.589 261.686 122.394 262.746 122.401C263.825 122.408 264.616 121.601 264.613 120.495C264.61 119.515 263.756 118.677 262.766 118.681C261.738 118.687 260.889 119.518 260.892 120.516ZM260.892 116.098C260.876 117.181 261.689 118.012 262.761 118.008C263.827 118.004 264.605 117.215 264.613 116.128C264.62 115.144 263.781 114.296 262.791 114.289C261.763 114.281 260.907 115.097 260.892 116.098ZM261.14 112.715C261.538 113.432 262.358 113.761 263.234 113.554C264.057 113.359 264.587 112.675 264.613 111.686C264.597 111.234 264.463 110.754 263.954 110.454C263.783 110.354 263.621 110.234 263.463 110.114C263.25 109.952 263.009 109.9 262.751 109.906C261.302 109.94 260.437 111.448 261.14 112.715ZM256.498 138.115C256.494 139.196 257.295 139.993 258.356 139.985C259.455 139.976 260.221 139.191 260.216 138.078C260.211 137.123 259.361 136.258 258.399 136.273C257.263 136.291 256.502 137.108 256.498 138.115ZM256.496 133.727C256.496 134.808 257.279 135.6 258.347 135.598C259.452 135.595 260.217 134.821 260.216 133.706C260.215 132.731 259.347 131.881 258.368 131.896C257.32 131.912 256.496 132.718 256.496 133.727ZM255.816 120.49C255.803 119.483 254.986 118.681 253.971 118.68C253.002 118.623 252.104 119.404 252.093 120.484C252.082 121.572 252.854 122.372 253.923 122.383C254.995 122.395 255.829 121.56 255.816 120.49ZM252.092 151.296C252.087 152.386 252.856 153.159 253.929 153.183C254.801 153.202 255.781 152.615 255.808 151.329C255.832 150.207 254.849 149.405 253.965 149.495C252.961 149.419 252.096 150.263 252.092 151.296ZM252.092 146.918C252.095 148.006 252.868 148.787 253.945 148.784C255.016 148.782 255.823 147.988 255.813 146.92C255.803 145.823 254.867 145.077 253.949 145.084C252.965 145.092 252.089 145.869 252.092 146.918ZM255.813 138.102C255.8 137.11 254.997 136.252 253.94 136.276C252.878 136.301 252.088 137.075 252.092 138.118C252.097 139.201 252.885 139.992 253.954 139.986C255.01 139.981 255.828 139.164 255.813 138.102ZM252.091 133.727C252.095 134.812 252.87 135.6 253.944 135.599C255.011 135.599 255.818 134.803 255.813 133.733C255.808 132.706 254.947 131.838 253.951 131.91C252.86 131.86 252.088 132.765 252.091 133.727ZM247.935 190.903C247.94 191.982 248.739 192.778 249.805 192.766C250.865 192.753 251.657 191.935 251.646 190.865C251.634 189.827 250.816 189.034 249.77 189.046C248.719 189.057 247.93 189.856 247.935 190.903ZM247.693 160.122C247.711 161.186 248.477 161.959 249.536 161.962C250.605 161.965 251.424 161.17 251.416 160.109C251.409 158.978 250.434 158.175 249.565 158.281C248.562 158.197 247.676 159.07 247.693 160.122ZM247.693 138.11C247.703 139.191 248.482 139.987 249.55 139.987C250.602 139.987 251.432 139.163 251.416 138.11C251.401 137.049 250.524 136.236 249.591 136.284C248.376 136.244 247.685 137.23 247.693 138.11ZM247.013 151.292C247.002 150.253 246.193 149.472 245.138 149.483C244.074 149.494 243.298 150.274 243.302 151.328C243.306 152.415 244.08 153.181 245.171 153.176C246.242 153.171 247.024 152.371 247.013 151.292ZM245.145 148.782C246.224 148.785 247.005 148.009 247.013 146.925C247.02 145.889 246.216 145.091 245.164 145.089C244.1 145.087 243.308 145.86 243.302 146.908C243.295 147.999 244.062 148.78 245.145 148.782ZM243.353 195.36C244.527 195.149 245.697 194.938 246.895 194.722C246.663 193.816 245.629 193.269 244.7 193.504C243.851 193.718 243.255 194.486 243.353 195.36ZM243.302 190.885C243.299 191.968 244.085 192.766 245.154 192.766C246.212 192.766 247.013 191.954 247.012 190.882C247.012 189.846 246.198 189.042 245.154 189.046C244.101 189.049 243.304 189.841 243.302 190.885ZM247.013 164.466C247.008 163.431 246.186 162.626 245.147 162.637C244.088 162.649 243.301 163.437 243.302 164.485C243.303 165.569 244.081 166.349 245.162 166.347C246.23 166.344 247.017 165.544 247.013 164.466ZM243.302 160.085C243.295 161.175 244.063 161.957 245.144 161.959C246.224 161.962 247.005 161.185 247.012 160.103C247.02 159.066 246.215 158.267 245.165 158.266C244.098 158.266 243.309 159.037 243.302 160.085ZM243.302 155.703C243.294 156.795 244.059 157.575 245.143 157.578C246.222 157.582 247.004 156.807 247.013 155.723C247.021 154.685 246.221 153.889 245.167 153.888C244.1 153.886 243.309 154.656 243.302 155.703ZM243.302 142.5C243.303 143.58 244.096 144.377 245.164 144.37C246.223 144.364 247.019 143.548 247.012 142.477C247.005 141.441 246.186 140.639 245.144 140.649C244.093 140.658 243.3 141.454 243.302 142.5ZM243.302 111.766C243.308 112.845 244.106 113.637 245.175 113.624C246.235 113.612 247.026 112.791 247.012 111.721C246.999 110.701 246.197 109.908 245.173 109.902C244.106 109.896 243.296 110.703 243.302 111.766ZM242.607 107.337C242.602 106.348 241.778 105.511 240.786 105.505C239.753 105.499 238.911 106.311 238.904 107.319C238.897 108.407 239.664 109.223 240.726 109.219C241.872 109.214 242.612 108.4 242.607 107.337ZM242.605 146.924C242.613 145.916 241.8 145.097 240.786 145.092C239.737 145.088 238.907 145.887 238.904 146.906C238.901 148.003 239.666 148.783 240.746 148.782C241.84 148.782 242.596 148.026 242.605 146.924ZM242.605 142.507C242.619 141.516 241.8 140.671 240.807 140.65C239.783 140.629 238.918 141.444 238.904 142.446C238.888 143.536 239.644 144.357 240.704 144.367C241.813 144.377 242.608 143.601 242.605 142.507ZM242.605 151.302C242.606 150.296 241.784 149.482 240.771 149.485C239.723 149.488 238.901 150.293 238.904 151.315C238.907 152.409 239.677 153.181 240.761 153.176C241.85 153.17 242.605 152.404 242.605 151.302ZM238.904 155.687C238.895 156.787 239.654 157.573 240.73 157.579C241.828 157.584 242.589 156.836 242.605 155.735C242.62 154.727 241.811 153.898 240.801 153.889C239.748 153.88 238.912 154.671 238.904 155.687ZM238.904 160.087C238.903 161.183 239.67 161.961 240.751 161.96C241.841 161.958 242.599 161.198 242.605 160.096C242.612 159.09 241.795 158.271 240.782 158.268C239.734 158.265 238.905 159.068 238.904 160.087ZM239.53 193.915C238.999 194.364 238.785 195.064 238.999 195.745C240.208 195.69 241.391 195.595 242.553 195.437C242.711 194.734 242.224 193.983 241.612 193.666C240.939 193.317 240.129 193.41 239.53 193.915ZM238.904 190.824C238.881 191.932 239.652 192.754 240.727 192.766C241.793 192.778 242.581 192.003 242.605 190.919C242.627 189.927 241.817 189.076 240.824 189.047C239.799 189.017 238.925 189.825 238.904 190.824ZM238.904 186.476C238.912 187.569 239.687 188.335 240.774 188.323C241.862 188.312 242.611 187.54 242.605 186.437C242.6 185.433 241.774 184.627 240.758 184.635C239.71 184.643 238.896 185.451 238.904 186.476ZM242.604 168.946C242.63 167.955 241.839 167.105 240.865 167.075C239.806 167.042 238.938 167.81 238.904 168.81C238.867 169.932 239.618 170.749 240.707 170.769C241.796 170.79 242.577 170.04 242.604 168.946ZM238.904 164.475C238.904 165.565 239.681 166.35 240.757 166.346C241.84 166.343 242.602 165.57 242.605 164.472C242.609 163.474 241.774 162.64 240.775 162.643C239.733 162.645 238.903 163.458 238.904 164.475ZM238.902 138.065C238.894 139.155 239.649 139.967 240.705 139.985C241.8 140.004 242.589 139.232 242.605 138.126C242.62 137.136 241.805 136.271 240.808 136.274C239.634 136.276 238.909 137.169 238.902 138.065ZM234.502 138.064C234.499 139.158 235.245 139.964 236.306 139.986C237.405 140.009 238.186 139.246 238.204 138.129C238.263 137.123 237.381 136.282 236.411 136.275C235.187 136.267 234.505 137.225 234.502 138.064ZM234.505 142.46C234.496 143.551 235.254 144.36 236.321 144.37C237.41 144.379 238.223 143.603 238.204 142.496C238.256 141.449 237.303 140.666 236.397 140.651C235.366 140.634 234.514 141.455 234.505 142.46ZM234.505 129.299C234.497 130.39 235.26 131.188 236.324 131.202C237.423 131.216 238.194 130.447 238.204 129.327C238.255 128.329 237.367 127.509 236.393 127.487C235.366 127.463 234.513 128.294 234.505 129.299ZM238.209 146.888C238.222 145.833 237.24 145.084 236.4 145.087C235.338 145.092 234.501 145.892 234.505 146.925C234.51 148.017 235.274 148.784 236.357 148.784C237.463 148.784 238.196 148.017 238.209 146.888ZM238.205 160.08C238.204 159.089 237.404 158.283 236.407 158.269C235.359 158.253 234.517 159.05 234.507 160.064C234.497 161.166 235.255 161.955 236.329 161.96C237.445 161.964 238.206 161.201 238.205 160.08ZM236.353 157.579C237.448 157.576 238.198 156.82 238.205 155.715C238.21 154.706 237.397 153.891 236.383 153.889C235.333 153.887 234.508 154.686 234.507 155.707C234.505 156.805 235.271 157.581 236.353 157.579ZM234.507 164.455C234.5 165.534 235.256 166.332 236.299 166.346C237.414 166.362 238.194 165.604 238.205 164.492C238.253 163.472 237.359 162.659 236.398 162.644C235.361 162.627 234.513 163.441 234.507 164.455ZM234.507 168.867C234.495 169.968 235.251 170.758 236.327 170.769C237.418 170.78 238.187 170.026 238.204 168.928C238.219 167.918 237.412 167.084 236.409 167.074C235.355 167.064 234.518 167.853 234.507 168.867ZM234.575 195.7C235.187 195.832 237.656 195.856 238.132 195.735C238.33 194.93 238.079 194.246 237.418 193.79C236.75 193.33 235.928 193.34 235.26 193.817C234.641 194.26 234.381 194.974 234.575 195.7ZM234.505 190.859C234.497 191.964 235.282 192.782 236.364 192.765C237.471 192.747 238.225 191.953 238.204 190.887C238.255 189.822 237.27 189.054 236.393 189.046C235.36 189.037 234.513 189.852 234.505 190.859ZM234.505 186.473C234.512 187.565 235.277 188.327 236.363 188.326C237.467 188.324 238.213 187.554 238.205 186.423C238.198 185.442 237.383 184.638 236.394 184.634C235.326 184.63 234.499 185.435 234.505 186.473ZM230.164 195.333C231.346 195.508 232.538 195.642 233.735 195.689C233.914 194.905 233.672 194.26 233.049 193.817C232.412 193.362 231.623 193.339 230.956 193.755C230.379 194.116 230.059 194.743 230.164 195.333ZM230.11 190.825C230.087 191.938 230.856 192.774 231.932 192.76C233.233 192.744 233.822 191.822 233.803 190.92C233.876 189.85 232.906 189.073 232.028 189.048C230.992 189.019 230.131 189.821 230.11 190.825ZM230.11 186.422C230.097 187.516 230.832 188.302 231.884 188.321C233.03 188.341 233.782 187.624 233.803 186.493C233.822 185.494 233.038 184.66 232.056 184.636C230.973 184.608 230.123 185.389 230.11 186.422ZM225.918 194.54C227.089 194.807 228.229 195.067 229.402 195.206C229.384 194.352 228.8 193.682 227.957 193.496C227.149 193.317 226.308 193.731 225.918 194.54ZM216.927 111.713C216.913 112.802 217.679 113.609 218.743 113.627C219.797 113.644 220.618 112.844 220.637 111.779C220.655 110.769 219.851 109.93 218.851 109.915C217.756 109.898 216.94 110.661 216.927 111.713ZM212.533 186.462C212.532 187.559 213.293 188.324 214.383 188.323C215.468 188.322 216.229 187.551 216.229 186.455C216.229 185.401 215.445 184.628 214.379 184.632C213.311 184.636 212.534 185.407 212.533 186.462ZM216.228 164.527C216.251 163.471 215.494 162.673 214.434 162.638C213.388 162.604 212.553 163.388 212.533 164.424C212.512 165.51 213.249 166.316 214.288 166.346C215.402 166.378 216.204 165.625 216.228 164.527ZM212.533 120.461C212.514 121.563 213.252 122.348 214.336 122.378C215.406 122.406 216.21 121.631 216.229 120.549C216.248 119.508 215.485 118.698 214.467 118.677C213.366 118.654 212.552 119.406 212.533 120.461ZM212.533 124.892C212.516 125.988 213.275 126.791 214.342 126.808C215.415 126.825 216.211 126.049 216.229 124.968C216.247 123.92 215.468 123.111 214.421 123.089C213.375 123.066 212.549 123.855 212.533 124.892ZM216.229 155.732C216.238 154.674 215.463 153.892 214.401 153.887C213.329 153.883 212.542 154.645 212.533 155.695C212.524 156.796 213.276 157.571 214.361 157.578C215.449 157.586 216.22 156.824 216.229 155.732ZM208.135 182.045C208.124 183.151 208.874 183.936 209.952 183.946C211.044 183.957 211.818 183.196 211.827 182.104C211.891 180.962 210.807 180.239 210.034 180.246C208.98 180.256 208.145 181.029 208.135 182.045ZM208.135 177.65C208.118 178.752 208.864 179.566 209.938 179.572C211.268 179.579 211.862 178.564 211.827 177.738C211.897 176.639 210.896 175.877 210.048 175.863C209.006 175.846 208.15 176.641 208.135 177.65ZM211.827 168.934C211.893 167.773 210.797 167.064 210.04 167.07C208.984 167.077 208.147 167.847 208.135 168.862C208.122 169.968 208.869 170.756 209.946 170.769C211.038 170.783 211.816 170.024 211.827 168.934ZM209.935 166.346C211.033 166.358 211.812 165.606 211.827 164.52C211.9 163.506 211.005 162.653 210.011 162.644C208.986 162.634 208.151 163.431 208.135 164.426C208.118 165.531 208.872 166.336 209.935 166.346ZM211.827 173.273C211.873 172.207 210.83 171.439 209.986 171.462C208.942 171.49 208.129 172.282 208.135 173.309C208.142 174.389 208.897 175.157 209.96 175.164C211.065 175.17 211.833 174.393 211.827 173.273ZM208.135 160.096C208.137 161.196 208.899 161.964 209.986 161.96C211.077 161.956 211.806 161.192 211.834 160.089C211.859 159.101 210.953 158.255 210.001 158.266C208.95 158.278 208.133 159.07 208.135 160.096ZM209.985 157.578C211.079 157.573 211.807 156.811 211.834 155.708C211.859 154.659 210.871 153.866 210.001 153.884C208.95 153.906 208.133 154.689 208.135 155.714C208.137 156.816 208.899 157.584 209.985 157.578ZM208.135 151.29C208.129 152.396 208.883 153.173 209.964 153.175C211.063 153.177 211.799 152.425 211.834 151.327C211.867 150.297 210.931 149.48 210.023 149.482C208.971 149.486 208.14 150.27 208.135 151.29ZM207.431 160.104C207.498 159.087 206.529 158.263 205.626 158.264C204.581 158.265 203.745 159.05 203.736 160.063C203.726 161.167 204.473 161.95 205.545 161.961C206.663 161.973 207.422 161.225 207.431 160.104ZM205.569 157.582C206.661 157.59 207.417 156.841 207.43 155.739C207.502 154.617 206.414 153.877 205.642 153.883C204.589 153.892 203.752 154.655 203.736 155.666C203.718 156.788 204.47 157.574 205.569 157.582ZM207.43 164.502C207.502 163.526 206.625 162.671 205.643 162.642C204.614 162.611 203.752 163.423 203.736 164.428C203.719 165.531 204.466 166.331 205.529 166.348C206.644 166.365 207.417 165.614 207.43 164.502ZM207.43 173.322C207.442 172.316 206.639 171.48 205.645 171.467C204.593 171.453 203.753 172.234 203.736 173.243C203.717 174.362 204.471 175.155 205.566 175.168C206.646 175.18 207.416 174.417 207.43 173.322ZM207.43 168.937C207.444 167.927 206.646 167.089 205.654 167.074C204.599 167.057 203.757 167.834 203.736 168.841C203.713 169.961 204.462 170.756 205.558 170.773C206.638 170.791 207.414 170.03 207.43 168.937ZM203.736 177.654C203.72 178.766 204.488 179.57 205.573 179.581C206.639 179.59 207.419 178.807 207.43 177.718C207.498 176.626 206.463 175.866 205.638 175.862C204.598 175.856 203.75 176.648 203.736 177.654ZM203.736 120.468C203.723 121.583 204.489 122.38 205.579 122.384C206.653 122.388 207.42 121.616 207.43 120.521C207.496 119.396 206.402 118.664 205.632 118.672C204.585 118.682 203.748 119.458 203.736 120.468ZM203.736 124.879C203.717 125.994 204.482 126.801 205.565 126.809C206.646 126.817 207.416 126.054 207.43 124.961C207.503 123.98 206.628 123.11 205.607 123.093C204.59 123.077 203.753 123.891 203.736 124.879ZM199.34 142.466C199.332 143.561 200.094 144.361 201.155 144.369C202.257 144.377 203.026 143.607 203.033 142.489C203.092 141.503 202.179 140.663 201.22 140.653C200.179 140.641 199.349 141.45 199.34 142.466ZM199.341 146.857C199.319 147.954 200.046 148.758 201.078 148.78C202.246 148.804 203.014 148.088 203.032 146.955C203.109 145.87 202.083 145.092 201.257 145.089C200.198 145.086 199.361 145.844 199.341 146.857ZM203.039 151.316C203.073 150.29 202.109 149.472 201.224 149.483C200.165 149.495 199.349 150.263 199.34 151.284C199.331 152.392 200.077 153.171 201.152 153.175C202.281 153.179 203.003 152.443 203.039 151.316ZM199.34 155.704C199.338 156.814 200.091 157.581 201.179 157.577C202.305 157.572 203.019 156.823 203.038 155.68C203.056 154.629 202.028 153.865 201.216 153.884C200.154 153.909 199.342 154.675 199.34 155.704ZM203.039 160.089C203.069 159.071 202.105 158.251 201.213 158.266C200.154 158.285 199.345 159.053 199.34 160.078C199.335 161.184 200.083 161.956 201.162 161.958C202.287 161.96 203.006 161.219 203.039 160.089ZM194.876 160.008C194.842 161.1 195.568 161.926 196.59 161.957C197.765 161.992 198.534 161.293 198.569 160.158C198.655 158.999 197.583 158.278 196.822 158.266C195.768 158.25 194.906 159.007 194.876 160.008ZM194.875 155.685C194.865 156.789 195.613 157.57 196.688 157.577C197.817 157.585 198.557 156.855 198.57 155.72C198.582 154.717 197.768 153.892 196.764 153.89C195.706 153.887 194.885 154.667 194.875 155.685ZM190.58 155.067C190.528 155.185 190.461 155.296 190.401 155.41V156.049C190.454 156.137 190.523 156.218 190.557 156.312C190.873 157.194 191.502 157.617 192.447 157.572C193.802 157.509 194.633 156.061 193.975 154.876C193.597 154.194 192.997 153.837 192.199 153.898C191.429 153.956 190.892 154.36 190.58 155.067ZM194.096 134.279C194.391 133.277 193.815 132.218 192.818 131.995C192.381 133.122 191.982 134.268 191.646 135.458C192.739 135.853 193.787 135.328 194.096 134.279ZM194.169 138.126C194.178 136.785 192.83 135.891 191.587 136.412C191.416 136.483 191.309 136.582 191.266 136.777C191.116 137.452 190.962 138.126 190.778 138.792C190.707 139.05 190.78 139.223 190.943 139.401C191.446 139.951 192.26 140.137 192.998 139.863C193.715 139.598 194.164 138.931 194.169 138.126ZM193.976 150.474C193.606 149.805 193.02 149.448 192.236 149.494C191.445 149.54 190.895 149.945 190.578 150.671C190.526 150.79 190.46 150.902 190.401 151.018V151.577C190.453 151.684 190.516 151.787 190.555 151.898C190.863 152.772 191.471 153.195 192.4 153.173C193.778 153.14 194.642 151.678 193.976 150.474ZM198.561 124.688C198.499 124.025 197.978 123.417 197.266 123.226C196.662 124.236 196.05 125.259 195.447 126.267C195.835 126.766 196.787 126.992 197.58 126.617C198.28 126.286 198.643 125.572 198.561 124.688ZM198.57 129.356C198.639 128.358 197.766 127.502 196.79 127.494C195.523 127.484 194.88 128.453 194.873 129.27C194.863 130.368 195.608 131.181 196.663 131.2C197.779 131.22 198.546 130.478 198.57 129.356ZM198.57 133.754C198.637 132.707 197.686 131.911 196.784 131.896C195.74 131.879 194.891 132.671 194.875 133.679C194.858 134.764 195.596 135.572 196.628 135.597C197.779 135.626 198.549 134.895 198.57 133.754ZM198.57 138.117C198.629 137.117 197.733 136.292 196.768 136.271C195.73 136.249 194.886 137.066 194.875 138.075C194.864 139.17 195.625 139.974 196.685 139.985C197.796 139.996 198.555 139.244 198.57 138.117ZM198.57 146.924C198.628 145.835 197.591 145.078 196.764 145.088C195.708 145.102 194.885 145.872 194.875 146.889C194.865 147.975 195.606 148.766 196.648 148.78C197.809 148.796 198.557 148.073 198.57 146.924ZM198.576 151.302C198.603 150.231 197.593 149.465 196.749 149.482C195.693 149.504 194.88 150.277 194.875 151.297C194.871 152.397 195.627 153.174 196.703 153.174C197.829 153.176 198.547 152.439 198.576 151.302ZM199.338 168.862C199.326 169.981 200.084 170.769 201.18 170.774C202.261 170.778 203.024 170.013 203.033 168.916C203.04 167.911 202.231 167.082 201.234 167.073C200.184 167.064 199.35 167.851 199.338 168.862ZM199.339 164.427C199.321 165.531 200.066 166.331 201.129 166.348C202.245 166.365 203.021 165.612 203.033 164.503C203.105 163.545 202.245 162.674 201.246 162.642C200.217 162.608 199.355 163.42 199.339 164.427ZM203.032 120.513C203.108 119.468 202.036 118.536 200.939 118.69C200.724 118.72 200.539 118.792 200.397 118.982C200.111 119.365 199.797 119.728 199.51 120.11C199.427 120.22 199.356 120.366 199.347 120.499C199.293 121.322 199.834 122.105 200.629 122.301C202.02 122.642 203.057 121.751 203.032 120.513ZM203.033 124.927C203.093 124.002 202.252 123.111 201.215 123.096C200.171 123.081 199.347 123.894 199.34 124.913C199.333 126.01 200.095 126.804 201.16 126.807C202.27 126.81 203.027 126.051 203.033 124.927ZM203.039 129.307C203.062 128.388 202.241 127.494 201.202 127.489C200.153 127.485 199.342 128.298 199.34 129.319C199.338 130.415 200.106 131.202 201.173 131.2C202.283 131.198 203.011 130.434 203.039 129.307ZM207.43 116.14C207.492 115.065 206.488 114.303 205.62 114.289C204.591 114.274 203.739 115.098 203.736 116.107C203.732 117.201 204.496 118.009 205.57 118.004C206.819 117.997 207.466 117.056 207.43 116.14ZM207.431 146.927C207.497 145.901 206.519 145.085 205.627 145.087C204.579 145.091 203.746 145.872 203.736 146.885C203.725 147.989 204.472 148.773 205.545 148.784C206.662 148.797 207.422 148.048 207.431 146.927ZM207.431 151.264C207.421 150.288 206.6 149.485 205.61 149.485C204.545 149.485 203.725 150.294 203.736 151.336C203.747 152.43 204.511 153.183 205.602 153.178C206.703 153.172 207.441 152.4 207.431 151.264ZM211.827 111.776C211.881 110.892 211.203 110.243 210.623 110.026C210.416 109.949 210.248 109.957 210.068 110.091C209.503 110.51 208.934 110.923 208.359 111.329C208.188 111.449 208.128 111.589 208.131 111.796C208.149 112.819 208.936 113.614 209.956 113.624C211.027 113.635 211.817 112.854 211.827 111.776ZM211.828 116.153C211.892 115.102 210.941 114.305 210.035 114.289C208.997 114.271 208.145 115.079 208.135 116.091C208.124 117.189 208.885 117.991 209.951 118.005C211.023 118.02 211.818 117.234 211.828 116.153ZM208.135 120.483C208.128 121.584 208.886 122.371 209.962 122.378C211.046 122.385 211.821 121.615 211.827 120.523C211.888 119.401 210.822 118.665 210.024 118.673C208.976 118.682 208.142 119.466 208.135 120.483ZM211.828 124.948C211.892 124.027 211.094 123.105 210.024 123.1C208.801 123.095 208.123 124.059 208.131 124.909C208.141 126.005 208.897 126.804 209.963 126.808C211.044 126.812 211.821 126.037 211.828 124.948ZM212.158 146.876C212.171 145.879 211.229 145.08 210.338 145.087C209.275 145.097 208.448 145.9 208.457 146.937C208.465 148.028 209.231 148.788 210.319 148.785C211.422 148.781 212.144 148.01 212.158 146.876ZM216.229 111.791C216.25 110.741 215.475 109.927 214.43 109.903C213.381 109.878 212.552 110.662 212.533 111.696C212.513 112.791 213.262 113.595 214.332 113.624C215.393 113.653 216.207 112.866 216.229 111.791ZM216.23 116.147C216.24 115.097 215.453 114.294 214.406 114.288C213.346 114.282 212.544 115.058 212.533 116.101C212.521 117.192 213.279 117.984 214.357 118.005C215.411 118.026 216.219 117.224 216.23 116.147ZM216.23 160.081C216.226 159.03 215.433 158.257 214.37 158.266C213.303 158.276 212.531 159.049 212.533 160.107C212.535 161.2 213.3 161.962 214.392 161.959C215.471 161.956 216.233 161.178 216.23 160.081ZM220.637 107.354C220.637 106.294 219.721 105.451 218.788 105.512C217.728 105.514 216.927 106.299 216.927 107.334C216.926 108.42 217.7 109.215 218.767 109.226C219.812 109.236 220.637 108.411 220.637 107.354ZM221.324 190.892C221.326 191.976 222.116 192.775 223.179 192.768C224.236 192.76 225.038 191.946 225.037 190.88C225.037 189.862 224.202 189.045 223.169 189.053C222.11 189.06 221.322 189.846 221.324 190.892ZM225.037 107.332C225.034 106.344 224.22 105.517 223.246 105.51C222.155 105.503 221.333 106.275 221.324 107.317C221.314 108.407 222.079 109.208 223.145 109.225C224.211 109.242 225.042 108.411 225.037 107.332ZM225.038 142.489C225.047 141.517 224.18 140.652 223.204 140.661C222.162 140.67 221.333 141.478 221.329 142.489C221.324 143.576 222.102 144.376 223.163 144.377C224.268 144.378 225.027 143.615 225.038 142.489ZM225.038 146.879C225.031 145.909 224.2 145.093 223.217 145.092C222.164 145.091 221.339 145.878 221.329 146.893C221.318 147.988 222.08 148.777 223.15 148.781C224.288 148.784 225.046 148.021 225.038 146.879ZM229.443 138.08C229.44 137.125 228.591 136.258 227.628 136.273C226.414 136.292 225.721 137.198 225.727 138.113C225.733 139.196 226.518 139.992 227.581 139.985C228.68 139.977 229.446 139.194 229.443 138.08ZM229.443 142.471C229.439 141.517 228.589 140.65 227.627 140.666C226.412 140.685 225.721 141.593 225.727 142.507C225.733 143.59 226.519 144.385 227.582 144.377C228.681 144.369 229.447 143.585 229.443 142.471ZM229.443 146.908C229.453 145.928 228.604 145.088 227.607 145.092C226.556 145.097 225.733 145.889 225.727 146.904C225.721 147.994 226.49 148.78 227.562 148.781C228.679 148.782 229.431 148.033 229.443 146.908ZM229.443 190.85C229.436 189.894 228.586 189.052 227.622 189.047C226.568 189.042 225.722 189.867 225.727 190.896C225.733 191.975 226.535 192.781 227.587 192.765C228.687 192.748 229.45 191.96 229.443 190.85ZM233.803 124.963C233.875 123.963 232.995 123.133 232.024 123.095C230.997 123.054 230.129 123.871 230.11 124.876C230.089 125.975 230.84 126.786 231.896 126.807C233.011 126.829 233.783 126.083 233.803 124.963ZM233.803 129.346C233.871 128.355 232.993 127.519 232.013 127.488C230.98 127.456 230.125 128.273 230.11 129.28C230.094 130.378 230.85 131.185 231.907 131.2C233.024 131.215 233.787 130.469 233.803 129.346ZM233.804 133.742C233.869 132.721 232.934 131.906 232.006 131.896C230.958 131.886 230.122 132.679 230.11 133.691C230.097 134.791 230.852 135.589 231.914 135.598C233.039 135.607 233.789 134.87 233.804 133.742ZM233.804 138.121C233.866 137.123 232.974 136.295 232.006 136.271C230.969 136.246 230.123 137.061 230.11 138.071C230.096 139.167 230.856 139.971 231.915 139.985C233.027 139.998 233.79 139.245 233.804 138.121ZM230.11 142.455C230.097 143.549 230.857 144.369 231.917 144.365C233.179 144.36 233.827 143.474 233.803 142.5C233.866 141.462 232.912 140.666 232.003 140.652C230.965 140.636 230.121 141.445 230.11 142.455ZM233.804 146.916C233.861 145.846 232.842 145.093 232.03 145.089C230.958 145.084 230.117 145.863 230.11 146.896C230.102 147.982 230.845 148.768 231.89 148.78C233.048 148.794 233.794 148.067 233.804 146.916ZM233.81 151.306C233.835 150.281 232.894 149.47 231.978 149.482C230.928 149.496 230.109 150.288 230.11 151.311C230.112 152.41 230.876 153.179 231.961 153.176C233.053 153.172 233.783 152.411 233.81 151.306ZM234.368 151.296C234.359 152.378 235.142 153.176 236.214 153.176C237.301 153.176 238.08 152.405 238.086 151.321C238.093 150.322 237.267 149.492 236.262 149.486C235.216 149.479 234.376 150.282 234.368 151.296ZM234.502 124.883C234.497 125.977 235.242 126.786 236.302 126.809C237.403 126.833 238.184 126.073 238.204 124.956C238.264 123.95 237.388 123.107 236.415 123.099C235.179 123.088 234.507 124.054 234.502 124.883ZM236.388 118.677C235.344 118.674 234.512 119.474 234.505 120.485C234.499 121.578 235.252 122.362 236.329 122.384C237.411 122.406 238.195 121.62 238.204 120.503C238.212 119.509 237.387 118.679 236.388 118.677ZM235.596 90.1657C267.943 90.1657 294.259 116.482 294.259 148.829C294.259 181.176 267.943 207.492 235.596 207.492C203.248 207.492 176.932 181.176 176.932 148.829C176.932 116.482 203.248 90.1657 235.596 90.1657ZM235.596 83.9702C199.833 83.9702 170.737 113.066 170.737 148.829C170.737 184.592 199.833 213.688 235.596 213.688C271.359 213.688 300.455 184.592 300.455 148.829C300.455 113.066 271.359 83.9702 235.596 83.9702ZM214.138 70.922C213.603 69.2931 211.854 68.4058 210.234 68.9312C208.605 69.4569 207.709 71.2064 208.243 72.8353C208.665 74.1452 209.88 74.9722 211.182 74.9722C211.501 74.9722 211.828 74.9291 212.147 74.8253C213.767 74.2916 214.663 72.5509 214.138 70.922ZM226.589 68.4486C226.322 66.7512 224.737 65.5962 223.048 65.8634C221.359 66.1306 220.204 67.716 220.471 69.4056C220.704 70.9309 222.023 72.0247 223.522 72.0247C223.686 72.0247 223.85 72.008 224.013 71.9819H224.004C225.702 71.7236 226.857 70.1376 226.589 68.4486ZM320.158 148.818C320.158 102.514 282.487 64.8423 236.183 64.8423C234.472 64.8423 233.085 66.2292 233.085 67.9399C233.085 69.651 234.472 71.0377 236.183 71.0377C279.071 71.0377 313.962 105.93 313.962 148.818C313.962 191.705 279.071 226.596 236.183 226.596C193.295 226.596 158.404 191.705 158.404 148.818C158.404 123.652 170.674 99.9216 191.227 85.3384C192.623 84.3484 192.951 82.4151 191.961 81.0197C190.971 79.6241 189.038 79.2966 187.642 80.286C187.395 80.4616 187.154 80.6448 186.909 80.823C186.88 80.8426 186.849 80.8543 186.82 80.875C186.789 80.8972 186.767 80.9261 186.737 80.9492C183.24 83.5011 179.973 86.3002 176.951 89.314C176.904 89.3558 176.851 89.3871 176.806 89.4322C176.765 89.4742 176.736 89.5234 176.697 89.5669C173.695 92.5872 170.937 95.8182 168.443 99.2301C168.379 99.3025 168.308 99.3661 168.25 99.4459C168.201 99.5123 168.17 99.5852 168.128 99.6541C165.684 103.041 163.499 106.602 161.587 110.304C161.502 110.423 161.416 110.54 161.347 110.674C161.264 110.837 161.205 111.005 161.153 111.174C159.332 114.802 157.772 118.56 156.49 122.421C156.422 122.557 156.354 122.693 156.305 122.842C156.257 122.99 156.233 123.139 156.208 123.287C154.942 127.243 153.966 131.301 153.296 135.432C153.278 135.508 153.25 135.578 153.238 135.656C153.228 135.718 153.233 135.778 153.227 135.839C152.557 140.102 152.208 144.439 152.208 148.818C152.208 195.122 189.879 232.792 236.183 232.792C282.487 232.792 320.158 195.122 320.158 148.818Z"
    fill="white"></path>
</svg>
