<svg width="51" height="20" viewBox="0 0 51 20" fill="none" preserveAspectRatio="none"
  xmlns="http://www.w3.org/2000/svg">
  <path id="Vector 2"
    d="M2 8.75C1.30964 8.75 0.75 9.30964 0.75 10C0.75 10.6904 1.30964 11.25 2 11.25L2 8.75ZM49.8839 10.8839C50.372 10.3957 50.372 9.60427 49.8839 9.11611L41.9289 1.16116C41.4408 0.673006 40.6493 0.673006 40.1612 1.16116C39.673 1.64932 39.673 2.44077 40.1612 2.92893L47.2322 10L40.1612 17.0711C39.673 17.5592 39.673 18.3507 40.1612 18.8388C40.6493 19.327 41.4408 19.327 41.9289 18.8388L49.8839 10.8839ZM2 11.25L49 11.25L49 8.75L2 8.75L2 11.25Z"
    fill="currentColor" />
</svg>
